<mxfile host="app.diagrams.net" agent="Mozilla/5.0 (Windows NT 10.0; Win64; x64) AppleWebKit/537.36 (KHTML, like Gecko) Chrome/134.0.0.0 Safari/537.36" version="26.2.3" pages="9">
  <diagram name="01" id="gAil7WvO4ZxPXHgMC-Ju">
    <mxGraphModel dx="1050" dy="557" grid="1" gridSize="10" guides="1" tooltips="1" connect="1" arrows="1" fold="1" page="1" pageScale="1" pageWidth="827" pageHeight="1169" math="0" shadow="0">
      <root>
        <mxCell id="0" />
        <mxCell id="1" parent="0" />
        <mxCell id="YDqlYkRBnH90VFwdR88I-43" style="edgeStyle=orthogonalEdgeStyle;rounded=0;orthogonalLoop=1;jettySize=auto;html=1;exitX=1;exitY=1;exitDx=0;exitDy=0;exitPerimeter=0;entryX=0.083;entryY=0.5;entryDx=0;entryDy=0;entryPerimeter=0;" parent="1" source="YDqlYkRBnH90VFwdR88I-4" target="YDqlYkRBnH90VFwdR88I-14" edge="1">
          <mxGeometry relative="1" as="geometry">
            <mxPoint x="140" y="320.666659268466" as="targetPoint" />
            <Array as="points">
              <mxPoint x="130" y="320" />
              <mxPoint x="130" y="320" />
            </Array>
          </mxGeometry>
        </mxCell>
        <mxCell id="gFDwMcspAUpe7j73_sEK-3" style="edgeStyle=orthogonalEdgeStyle;rounded=0;orthogonalLoop=1;jettySize=auto;html=1;exitX=0.5;exitY=0;exitDx=0;exitDy=0;exitPerimeter=0;" edge="1" parent="1" source="YDqlYkRBnH90VFwdR88I-4">
          <mxGeometry relative="1" as="geometry">
            <mxPoint x="90" y="230" as="targetPoint" />
          </mxGeometry>
        </mxCell>
        <mxCell id="YDqlYkRBnH90VFwdR88I-4" value="CLIENTE" style="shape=umlActor;verticalLabelPosition=bottom;verticalAlign=top;html=1;outlineConnect=0;" parent="1" vertex="1">
          <mxGeometry x="60" y="250" width="60" height="70" as="geometry" />
        </mxCell>
        <mxCell id="YDqlYkRBnH90VFwdR88I-8" value="FAZER RESERVA&lt;div&gt;&lt;br&gt;&lt;/div&gt;" style="ellipse;whiteSpace=wrap;html=1;" parent="1" vertex="1">
          <mxGeometry x="170" y="170" width="120" height="80" as="geometry" />
        </mxCell>
        <mxCell id="YDqlYkRBnH90VFwdR88I-14" value="CANCELAR RESERVA" style="ellipse;whiteSpace=wrap;html=1;" parent="1" vertex="1">
          <mxGeometry x="170" y="280" width="120" height="80" as="geometry" />
        </mxCell>
        <mxCell id="YDqlYkRBnH90VFwdR88I-37" value="" style="endArrow=classic;html=1;rounded=0;exitX=1;exitY=0.3333333333333333;exitDx=0;exitDy=0;exitPerimeter=0;entryX=0;entryY=1;entryDx=0;entryDy=0;" parent="1" source="YDqlYkRBnH90VFwdR88I-4" target="YDqlYkRBnH90VFwdR88I-8" edge="1">
          <mxGeometry width="50" height="50" relative="1" as="geometry">
            <mxPoint x="210" y="240" as="sourcePoint" />
            <mxPoint x="190" y="230" as="targetPoint" />
          </mxGeometry>
        </mxCell>
      </root>
    </mxGraphModel>
  </diagram>
  <diagram id="d7rXKweibM84BXabHawF" name="02">
    <mxGraphModel dx="840" dy="446" grid="1" gridSize="10" guides="1" tooltips="1" connect="1" arrows="1" fold="1" page="1" pageScale="1" pageWidth="827" pageHeight="1169" math="0" shadow="0">
      <root>
        <mxCell id="0" />
        <mxCell id="1" parent="0" />
        <mxCell id="BBaklJV7pi8xmm_YqeFg-1" value="CLIENTE" style="shape=umlActor;verticalLabelPosition=bottom;verticalAlign=top;html=1;outlineConnect=0;" parent="1" vertex="1">
          <mxGeometry x="50" y="140" width="30" height="60" as="geometry" />
        </mxCell>
        <mxCell id="BBaklJV7pi8xmm_YqeFg-2" value="TÉCNICO" style="shape=umlActor;verticalLabelPosition=bottom;verticalAlign=top;html=1;outlineConnect=0;" parent="1" vertex="1">
          <mxGeometry x="50" y="340" width="30" height="60" as="geometry" />
        </mxCell>
        <mxCell id="BBaklJV7pi8xmm_YqeFg-3" value="BANCO" style="shape=umlActor;verticalLabelPosition=bottom;verticalAlign=top;html=1;outlineConnect=0;" parent="1" vertex="1">
          <mxGeometry x="420" y="220" width="30" height="60" as="geometry" />
        </mxCell>
        <mxCell id="BBaklJV7pi8xmm_YqeFg-4" value="" style="swimlane;startSize=0;" parent="1" vertex="1">
          <mxGeometry x="140" y="40" width="200" height="400" as="geometry" />
        </mxCell>
        <mxCell id="BBaklJV7pi8xmm_YqeFg-6" value="Sistema de Caixa Eletrô&lt;span style=&quot;background-color: transparent; color: light-dark(rgb(0, 0, 0), rgb(255, 255, 255));&quot;&gt;nico&lt;/span&gt;" style="text;html=1;align=center;verticalAlign=middle;resizable=0;points=[];autosize=1;strokeColor=none;fillColor=none;" parent="BBaklJV7pi8xmm_YqeFg-4" vertex="1">
          <mxGeometry x="15" width="170" height="30" as="geometry" />
        </mxCell>
        <mxCell id="BBaklJV7pi8xmm_YqeFg-7" value="CHECAR SALDO" style="ellipse;whiteSpace=wrap;html=1;shadow=1;" parent="BBaklJV7pi8xmm_YqeFg-4" vertex="1">
          <mxGeometry x="49" y="33" width="92" height="45" as="geometry" />
        </mxCell>
        <mxCell id="BBaklJV7pi8xmm_YqeFg-10" value="SACAR" style="ellipse;whiteSpace=wrap;html=1;shadow=1;" parent="BBaklJV7pi8xmm_YqeFg-4" vertex="1">
          <mxGeometry x="54" y="153" width="92" height="45" as="geometry" />
        </mxCell>
        <mxCell id="BBaklJV7pi8xmm_YqeFg-11" value="TRANSFERIR" style="ellipse;whiteSpace=wrap;html=1;shadow=1;" parent="BBaklJV7pi8xmm_YqeFg-4" vertex="1">
          <mxGeometry x="54" y="210" width="92" height="45" as="geometry" />
        </mxCell>
        <mxCell id="BBaklJV7pi8xmm_YqeFg-9" value="DEPOSITAR" style="ellipse;whiteSpace=wrap;html=1;shadow=1;" parent="1" vertex="1">
          <mxGeometry x="190" y="137" width="92" height="46" as="geometry" />
        </mxCell>
        <mxCell id="BBaklJV7pi8xmm_YqeFg-12" value="MANUTENÇÃO" style="ellipse;whiteSpace=wrap;html=1;shadow=1;" parent="1" vertex="1">
          <mxGeometry x="193" y="311" width="92" height="45" as="geometry" />
        </mxCell>
        <mxCell id="BBaklJV7pi8xmm_YqeFg-13" value="REPARO" style="ellipse;whiteSpace=wrap;html=1;shadow=1;" parent="1" vertex="1">
          <mxGeometry x="194" y="364" width="92" height="45" as="geometry" />
        </mxCell>
        <mxCell id="BBaklJV7pi8xmm_YqeFg-16" value="" style="endArrow=classic;html=1;rounded=0;entryX=0;entryY=0.5;entryDx=0;entryDy=0;" parent="1" target="BBaklJV7pi8xmm_YqeFg-7" edge="1">
          <mxGeometry width="50" height="50" relative="1" as="geometry">
            <mxPoint x="90" y="160" as="sourcePoint" />
            <mxPoint x="340" y="220" as="targetPoint" />
          </mxGeometry>
        </mxCell>
        <mxCell id="BBaklJV7pi8xmm_YqeFg-17" value="" style="endArrow=classic;html=1;rounded=0;entryX=0;entryY=0.5;entryDx=0;entryDy=0;" parent="1" target="BBaklJV7pi8xmm_YqeFg-9" edge="1">
          <mxGeometry width="50" height="50" relative="1" as="geometry">
            <mxPoint x="90" y="170" as="sourcePoint" />
            <mxPoint x="340" y="220" as="targetPoint" />
          </mxGeometry>
        </mxCell>
        <mxCell id="BBaklJV7pi8xmm_YqeFg-18" value="" style="endArrow=classic;html=1;rounded=0;entryX=0;entryY=0.5;entryDx=0;entryDy=0;" parent="1" target="BBaklJV7pi8xmm_YqeFg-10" edge="1">
          <mxGeometry width="50" height="50" relative="1" as="geometry">
            <mxPoint x="90" y="180" as="sourcePoint" />
            <mxPoint x="340" y="220" as="targetPoint" />
          </mxGeometry>
        </mxCell>
        <mxCell id="BBaklJV7pi8xmm_YqeFg-19" value="" style="endArrow=classic;html=1;rounded=0;entryX=0;entryY=0.5;entryDx=0;entryDy=0;" parent="1" target="BBaklJV7pi8xmm_YqeFg-11" edge="1">
          <mxGeometry width="50" height="50" relative="1" as="geometry">
            <mxPoint x="90" y="190" as="sourcePoint" />
            <mxPoint x="340" y="220" as="targetPoint" />
          </mxGeometry>
        </mxCell>
        <mxCell id="BBaklJV7pi8xmm_YqeFg-20" value="" style="endArrow=classic;html=1;rounded=0;entryX=1;entryY=0.5;entryDx=0;entryDy=0;" parent="1" target="BBaklJV7pi8xmm_YqeFg-9" edge="1">
          <mxGeometry width="50" height="50" relative="1" as="geometry">
            <mxPoint x="410" y="240" as="sourcePoint" />
            <mxPoint x="340" y="220" as="targetPoint" />
          </mxGeometry>
        </mxCell>
        <mxCell id="BBaklJV7pi8xmm_YqeFg-21" value="" style="endArrow=classic;html=1;rounded=0;entryX=1;entryY=0.5;entryDx=0;entryDy=0;" parent="1" target="BBaklJV7pi8xmm_YqeFg-7" edge="1">
          <mxGeometry width="50" height="50" relative="1" as="geometry">
            <mxPoint x="410" y="220" as="sourcePoint" />
            <mxPoint x="340" y="220" as="targetPoint" />
          </mxGeometry>
        </mxCell>
        <mxCell id="BBaklJV7pi8xmm_YqeFg-22" value="" style="endArrow=classic;html=1;rounded=0;entryX=1;entryY=0.5;entryDx=0;entryDy=0;" parent="1" target="BBaklJV7pi8xmm_YqeFg-13" edge="1">
          <mxGeometry width="50" height="50" relative="1" as="geometry">
            <mxPoint x="410" y="310" as="sourcePoint" />
            <mxPoint x="340" y="220" as="targetPoint" />
          </mxGeometry>
        </mxCell>
        <mxCell id="BBaklJV7pi8xmm_YqeFg-23" value="" style="endArrow=classic;html=1;rounded=0;entryX=1;entryY=0.5;entryDx=0;entryDy=0;" parent="1" target="BBaklJV7pi8xmm_YqeFg-12" edge="1">
          <mxGeometry width="50" height="50" relative="1" as="geometry">
            <mxPoint x="410" y="290" as="sourcePoint" />
            <mxPoint x="340" y="220" as="targetPoint" />
          </mxGeometry>
        </mxCell>
        <mxCell id="BBaklJV7pi8xmm_YqeFg-24" value="" style="endArrow=classic;html=1;rounded=0;entryX=1;entryY=0.5;entryDx=0;entryDy=0;" parent="1" target="BBaklJV7pi8xmm_YqeFg-11" edge="1">
          <mxGeometry width="50" height="50" relative="1" as="geometry">
            <mxPoint x="410" y="270" as="sourcePoint" />
            <mxPoint x="340" y="220" as="targetPoint" />
          </mxGeometry>
        </mxCell>
        <mxCell id="BBaklJV7pi8xmm_YqeFg-25" value="" style="endArrow=classic;html=1;rounded=0;entryX=0.939;entryY=0.472;entryDx=0;entryDy=0;entryPerimeter=0;" parent="1" target="BBaklJV7pi8xmm_YqeFg-10" edge="1">
          <mxGeometry width="50" height="50" relative="1" as="geometry">
            <mxPoint x="410" y="250" as="sourcePoint" />
            <mxPoint x="340" y="220" as="targetPoint" />
          </mxGeometry>
        </mxCell>
        <mxCell id="BBaklJV7pi8xmm_YqeFg-26" value="" style="endArrow=classic;html=1;rounded=0;entryX=0;entryY=0.5;entryDx=0;entryDy=0;" parent="1" target="BBaklJV7pi8xmm_YqeFg-13" edge="1">
          <mxGeometry width="50" height="50" relative="1" as="geometry">
            <mxPoint x="90" y="390" as="sourcePoint" />
            <mxPoint x="140" y="350" as="targetPoint" />
          </mxGeometry>
        </mxCell>
        <mxCell id="BBaklJV7pi8xmm_YqeFg-27" value="" style="endArrow=classic;html=1;rounded=0;entryX=0;entryY=0.5;entryDx=0;entryDy=0;" parent="1" target="BBaklJV7pi8xmm_YqeFg-12" edge="1">
          <mxGeometry width="50" height="50" relative="1" as="geometry">
            <mxPoint x="90" y="370" as="sourcePoint" />
            <mxPoint x="140" y="320" as="targetPoint" />
          </mxGeometry>
        </mxCell>
      </root>
    </mxGraphModel>
  </diagram>
  <diagram id="znGvzrXGUinT6uckY2jk" name="Página-3">
    <mxGraphModel dx="1400" dy="1912" grid="1" gridSize="10" guides="1" tooltips="1" connect="1" arrows="1" fold="1" page="1" pageScale="1" pageWidth="827" pageHeight="1169" math="0" shadow="0">
      <root>
        <mxCell id="0" />
        <mxCell id="1" parent="0" />
        <mxCell id="GzVjnmCvhl_siWair2cS-1" value="RECEPCIONISTA" style="shape=umlActor;verticalLabelPosition=bottom;verticalAlign=top;html=1;outlineConnect=0;fillColor=#d80073;strokeColor=#A50040;fontColor=#ffffff;" vertex="1" parent="1">
          <mxGeometry x="63" y="226" width="70" height="140" as="geometry" />
        </mxCell>
        <mxCell id="GzVjnmCvhl_siWair2cS-8" value="CLIENTE" style="shape=umlActor;verticalLabelPosition=bottom;verticalAlign=top;html=1;outlineConnect=0;fillColor=#e3c800;fontColor=#000000;strokeColor=#B09500;" vertex="1" parent="1">
          <mxGeometry x="746" y="226" width="70" height="140" as="geometry" />
        </mxCell>
        <mxCell id="GzVjnmCvhl_siWair2cS-9" value="" style="whiteSpace=wrap;html=1;aspect=fixed;fillColor=#cce5ff;strokeColor=#36393d;" vertex="1" parent="1">
          <mxGeometry x="160" y="-20" width="570" height="570" as="geometry" />
        </mxCell>
        <mxCell id="GzVjnmCvhl_siWair2cS-10" value="CONSULTAR&lt;div&gt;DISPONIBILIDADE&lt;/div&gt;" style="ellipse;whiteSpace=wrap;html=1;fillColor=#dae8fc;strokeColor=#6c8ebf;" vertex="1" parent="1">
          <mxGeometry x="376" y="-10" width="120" height="80" as="geometry" />
        </mxCell>
        <mxCell id="GzVjnmCvhl_siWair2cS-11" value="FAZER RESERVA" style="ellipse;whiteSpace=wrap;html=1;fillColor=#dae8fc;strokeColor=#6c8ebf;" vertex="1" parent="1">
          <mxGeometry x="376" y="90" width="120" height="80" as="geometry" />
        </mxCell>
        <mxCell id="GzVjnmCvhl_siWair2cS-12" value="CANCELAR RESERVA" style="ellipse;whiteSpace=wrap;html=1;fillColor=#dae8fc;strokeColor=#6c8ebf;" vertex="1" parent="1">
          <mxGeometry x="376" y="190" width="120" height="80" as="geometry" />
        </mxCell>
        <mxCell id="GzVjnmCvhl_siWair2cS-13" value="EFETUAR PAGAMENTO" style="ellipse;whiteSpace=wrap;html=1;fillColor=#dae8fc;strokeColor=#6c8ebf;gradientColor=none;" vertex="1" parent="1">
          <mxGeometry x="376" y="280" width="120" height="80" as="geometry" />
        </mxCell>
        <mxCell id="GzVjnmCvhl_siWair2cS-23" value="GERENCIAR&lt;div&gt;RESERVA&lt;/div&gt;" style="ellipse;whiteSpace=wrap;html=1;fillColor=#dae8fc;strokeColor=#6c8ebf;gradientColor=none;" vertex="1" parent="1">
          <mxGeometry x="376" y="370" width="120" height="80" as="geometry" />
        </mxCell>
        <mxCell id="GzVjnmCvhl_siWair2cS-24" value="ATUALIZAR STATUS DOS QUARTOS" style="ellipse;whiteSpace=wrap;html=1;fillColor=#dae8fc;strokeColor=#6c8ebf;gradientColor=none;" vertex="1" parent="1">
          <mxGeometry x="376" y="460" width="120" height="80" as="geometry" />
        </mxCell>
        <mxCell id="GzVjnmCvhl_siWair2cS-25" value="" style="endArrow=classic;html=1;rounded=0;exitX=0;exitY=0.3333333333333333;exitDx=0;exitDy=0;exitPerimeter=0;entryX=1;entryY=0.5;entryDx=0;entryDy=0;fillColor=#ffff88;strokeColor=#36393d;" edge="1" parent="1" source="GzVjnmCvhl_siWair2cS-8" target="GzVjnmCvhl_siWair2cS-10">
          <mxGeometry width="50" height="50" relative="1" as="geometry">
            <mxPoint x="340" y="270" as="sourcePoint" />
            <mxPoint x="390" y="220" as="targetPoint" />
          </mxGeometry>
        </mxCell>
        <mxCell id="GzVjnmCvhl_siWair2cS-26" value="" style="endArrow=classic;html=1;rounded=0;entryX=1;entryY=0.5;entryDx=0;entryDy=0;exitX=0;exitY=0.3333333333333333;exitDx=0;exitDy=0;exitPerimeter=0;fillColor=#ffff88;strokeColor=#36393d;" edge="1" parent="1" source="GzVjnmCvhl_siWair2cS-8" target="GzVjnmCvhl_siWair2cS-11">
          <mxGeometry width="50" height="50" relative="1" as="geometry">
            <mxPoint x="340" y="270" as="sourcePoint" />
            <mxPoint x="390" y="220" as="targetPoint" />
          </mxGeometry>
        </mxCell>
        <mxCell id="GzVjnmCvhl_siWair2cS-27" value="" style="endArrow=classic;html=1;rounded=0;exitX=0;exitY=0.3333333333333333;exitDx=0;exitDy=0;exitPerimeter=0;fillColor=#ffff88;strokeColor=#36393d;" edge="1" parent="1" source="GzVjnmCvhl_siWair2cS-8">
          <mxGeometry width="50" height="50" relative="1" as="geometry">
            <mxPoint x="340" y="270" as="sourcePoint" />
            <mxPoint x="490" y="230" as="targetPoint" />
          </mxGeometry>
        </mxCell>
        <mxCell id="GzVjnmCvhl_siWair2cS-28" value="" style="endArrow=classic;html=1;rounded=0;exitX=0;exitY=0.3333333333333333;exitDx=0;exitDy=0;exitPerimeter=0;entryX=1;entryY=0.5;entryDx=0;entryDy=0;fillColor=#ffff88;strokeColor=#36393d;" edge="1" parent="1" source="GzVjnmCvhl_siWair2cS-8" target="GzVjnmCvhl_siWair2cS-13">
          <mxGeometry width="50" height="50" relative="1" as="geometry">
            <mxPoint x="340" y="270" as="sourcePoint" />
            <mxPoint x="390" y="220" as="targetPoint" />
          </mxGeometry>
        </mxCell>
        <mxCell id="GzVjnmCvhl_siWair2cS-29" value="" style="endArrow=classic;html=1;rounded=0;exitX=1;exitY=0.3333333333333333;exitDx=0;exitDy=0;exitPerimeter=0;entryX=0;entryY=0.5;entryDx=0;entryDy=0;fillColor=#ffcccc;strokeColor=#36393d;" edge="1" parent="1" source="GzVjnmCvhl_siWair2cS-1" target="GzVjnmCvhl_siWair2cS-23">
          <mxGeometry width="50" height="50" relative="1" as="geometry">
            <mxPoint x="340" y="270" as="sourcePoint" />
            <mxPoint x="390" y="220" as="targetPoint" />
          </mxGeometry>
        </mxCell>
        <mxCell id="GzVjnmCvhl_siWair2cS-30" value="" style="endArrow=classic;html=1;rounded=0;entryX=0;entryY=0.5;entryDx=0;entryDy=0;exitX=1;exitY=0.3333333333333333;exitDx=0;exitDy=0;exitPerimeter=0;fillColor=#ffcccc;strokeColor=#36393d;" edge="1" parent="1" source="GzVjnmCvhl_siWair2cS-1" target="GzVjnmCvhl_siWair2cS-24">
          <mxGeometry width="50" height="50" relative="1" as="geometry">
            <mxPoint x="340" y="360" as="sourcePoint" />
            <mxPoint x="390" y="310" as="targetPoint" />
          </mxGeometry>
        </mxCell>
        <mxCell id="GzVjnmCvhl_siWair2cS-31" value="SISTEMA DE RESERVA DE HOTEL" style="swimlane;whiteSpace=wrap;html=1;" vertex="1" parent="1">
          <mxGeometry x="160" y="-40" width="570" height="590" as="geometry" />
        </mxCell>
      </root>
    </mxGraphModel>
  </diagram>
  <diagram id="8WfJecp_vd0kiX1ARaBq" name="PROJETO EAD">
    <mxGraphModel dx="808" dy="1597" grid="1" gridSize="10" guides="1" tooltips="1" connect="1" arrows="1" fold="1" page="1" pageScale="1" pageWidth="827" pageHeight="1169" math="0" shadow="0">
      <root>
        <mxCell id="0" />
        <mxCell id="1" parent="0" />
        <mxCell id="-lAXZ4KLo43VhV0Jl56r-1" value="&lt;p&gt;&lt;font style=&quot;font-size: 14px;&quot;&gt;SISTEMA EAD&lt;/font&gt;&lt;/p&gt;" style="swimlane;whiteSpace=wrap;html=1;fillColor=#60a917;strokeColor=#2D7600;fillStyle=solid;rounded=1;glass=0;sketch=1;curveFitting=1;jiggle=2;fontColor=#ffffff;" parent="1" vertex="1">
          <mxGeometry x="90" y="-40" width="660" height="779" as="geometry" />
        </mxCell>
        <mxCell id="-lAXZ4KLo43VhV0Jl56r-18" value="ALUNO" style="shape=umlActor;verticalLabelPosition=bottom;verticalAlign=top;html=1;outlineConnect=0;fillColor=#0050ef;fontColor=#ffffff;strokeColor=#001DBC;" parent="-lAXZ4KLo43VhV0Jl56r-1" vertex="1">
          <mxGeometry x="110" y="156" width="30" height="60" as="geometry" />
        </mxCell>
        <mxCell id="-lAXZ4KLo43VhV0Jl56r-16" value="PROFESSOR" style="shape=umlActor;verticalLabelPosition=bottom;verticalAlign=top;html=1;outlineConnect=0;fillColor=#e3c800;fontColor=#000000;strokeColor=#B09500;" parent="-lAXZ4KLo43VhV0Jl56r-1" vertex="1">
          <mxGeometry x="315" y="156" width="30" height="60" as="geometry" />
        </mxCell>
        <mxCell id="-lAXZ4KLo43VhV0Jl56r-20" value="ATENDENTE" style="shape=umlActor;verticalLabelPosition=bottom;verticalAlign=top;html=1;outlineConnect=0;fillColor=#e51400;fontColor=#ffffff;strokeColor=#B20000;" parent="-lAXZ4KLo43VhV0Jl56r-1" vertex="1">
          <mxGeometry x="520" y="156" width="30" height="60" as="geometry" />
        </mxCell>
        <mxCell id="OK6Kkgbx7uz40GMvEywE-2" value="EFETUAR LOGIN" style="ellipse;whiteSpace=wrap;html=1;" parent="-lAXZ4KLo43VhV0Jl56r-1" vertex="1">
          <mxGeometry x="270" y="60" width="120" height="80" as="geometry" />
        </mxCell>
        <mxCell id="OK6Kkgbx7uz40GMvEywE-5" value="" style="endArrow=classic;html=1;rounded=0;exitX=1;exitY=0.3333333333333333;exitDx=0;exitDy=0;exitPerimeter=0;entryX=0.008;entryY=0.588;entryDx=0;entryDy=0;entryPerimeter=0;" parent="-lAXZ4KLo43VhV0Jl56r-1" source="-lAXZ4KLo43VhV0Jl56r-18" target="OK6Kkgbx7uz40GMvEywE-2" edge="1">
          <mxGeometry width="50" height="50" relative="1" as="geometry">
            <mxPoint x="290" y="400" as="sourcePoint" />
            <mxPoint x="340" y="350" as="targetPoint" />
          </mxGeometry>
        </mxCell>
        <mxCell id="OK6Kkgbx7uz40GMvEywE-6" value="" style="endArrow=classic;html=1;rounded=0;" parent="-lAXZ4KLo43VhV0Jl56r-1" source="-lAXZ4KLo43VhV0Jl56r-16" target="OK6Kkgbx7uz40GMvEywE-2" edge="1">
          <mxGeometry width="50" height="50" relative="1" as="geometry">
            <mxPoint x="150" y="210" as="sourcePoint" />
            <mxPoint x="281" y="117" as="targetPoint" />
          </mxGeometry>
        </mxCell>
        <mxCell id="OK6Kkgbx7uz40GMvEywE-7" value="" style="endArrow=classic;html=1;rounded=0;exitX=0;exitY=0.3333333333333333;exitDx=0;exitDy=0;exitPerimeter=0;entryX=1;entryY=0.5;entryDx=0;entryDy=0;" parent="-lAXZ4KLo43VhV0Jl56r-1" source="-lAXZ4KLo43VhV0Jl56r-20" target="OK6Kkgbx7uz40GMvEywE-2" edge="1">
          <mxGeometry width="50" height="50" relative="1" as="geometry">
            <mxPoint x="160" y="220" as="sourcePoint" />
            <mxPoint x="291" y="127" as="targetPoint" />
          </mxGeometry>
        </mxCell>
        <mxCell id="OK6Kkgbx7uz40GMvEywE-8" value="CONSULTAR BOLETIM" style="ellipse;whiteSpace=wrap;html=1;" parent="-lAXZ4KLo43VhV0Jl56r-1" vertex="1">
          <mxGeometry x="18" y="270" width="90" height="60" as="geometry" />
        </mxCell>
        <mxCell id="OK6Kkgbx7uz40GMvEywE-9" value="APLICAR AVALIAÇÃO" style="ellipse;whiteSpace=wrap;html=1;" parent="-lAXZ4KLo43VhV0Jl56r-1" vertex="1">
          <mxGeometry x="189" y="364" width="90" height="60" as="geometry" />
        </mxCell>
        <mxCell id="OK6Kkgbx7uz40GMvEywE-10" value="" style="endArrow=classic;html=1;rounded=0;exitX=1;exitY=1;exitDx=0;exitDy=0;exitPerimeter=0;entryX=0.5;entryY=0;entryDx=0;entryDy=0;" parent="-lAXZ4KLo43VhV0Jl56r-1" source="-lAXZ4KLo43VhV0Jl56r-18" target="OK6Kkgbx7uz40GMvEywE-8" edge="1">
          <mxGeometry width="50" height="50" relative="1" as="geometry">
            <mxPoint x="300" y="400" as="sourcePoint" />
            <mxPoint x="190" y="240" as="targetPoint" />
          </mxGeometry>
        </mxCell>
        <mxCell id="OK6Kkgbx7uz40GMvEywE-12" value="" style="endArrow=classic;html=1;rounded=0;exitX=0;exitY=1;exitDx=0;exitDy=0;exitPerimeter=0;entryX=0.5;entryY=0;entryDx=0;entryDy=0;" parent="-lAXZ4KLo43VhV0Jl56r-1" source="-lAXZ4KLo43VhV0Jl56r-16" target="OK6Kkgbx7uz40GMvEywE-9" edge="1">
          <mxGeometry width="50" height="50" relative="1" as="geometry">
            <mxPoint x="300" y="400" as="sourcePoint" />
            <mxPoint x="350" y="350" as="targetPoint" />
          </mxGeometry>
        </mxCell>
        <mxCell id="OK6Kkgbx7uz40GMvEywE-13" value="LANÇAR NOTAS" style="ellipse;whiteSpace=wrap;html=1;" parent="-lAXZ4KLo43VhV0Jl56r-1" vertex="1">
          <mxGeometry x="288" y="364" width="90" height="60" as="geometry" />
        </mxCell>
        <mxCell id="OK6Kkgbx7uz40GMvEywE-14" value="" style="endArrow=classic;html=1;rounded=0;exitX=1;exitY=1;exitDx=0;exitDy=0;exitPerimeter=0;entryX=0.5;entryY=0;entryDx=0;entryDy=0;" parent="-lAXZ4KLo43VhV0Jl56r-1" source="-lAXZ4KLo43VhV0Jl56r-16" target="OK6Kkgbx7uz40GMvEywE-13" edge="1">
          <mxGeometry width="50" height="50" relative="1" as="geometry">
            <mxPoint x="300" y="400" as="sourcePoint" />
            <mxPoint x="350" y="350" as="targetPoint" />
          </mxGeometry>
        </mxCell>
        <mxCell id="OK6Kkgbx7uz40GMvEywE-15" value="GERENCIAR ATENDIMENTO" style="ellipse;whiteSpace=wrap;html=1;" parent="-lAXZ4KLo43VhV0Jl56r-1" vertex="1">
          <mxGeometry x="490" y="280" width="90" height="60" as="geometry" />
        </mxCell>
        <mxCell id="OK6Kkgbx7uz40GMvEywE-16" value="" style="endArrow=classic;html=1;rounded=0;" parent="-lAXZ4KLo43VhV0Jl56r-1" source="-lAXZ4KLo43VhV0Jl56r-20" target="OK6Kkgbx7uz40GMvEywE-15" edge="1">
          <mxGeometry width="50" height="50" relative="1" as="geometry">
            <mxPoint x="535" y="240" as="sourcePoint" />
            <mxPoint x="350" y="350" as="targetPoint" />
          </mxGeometry>
        </mxCell>
        <mxCell id="OK6Kkgbx7uz40GMvEywE-17" value="GERENCIAR&lt;br&gt;MATRÍCULAS" style="ellipse;whiteSpace=wrap;html=1;" parent="-lAXZ4KLo43VhV0Jl56r-1" vertex="1">
          <mxGeometry x="430" y="359.5" width="100" height="60" as="geometry" />
        </mxCell>
        <mxCell id="OK6Kkgbx7uz40GMvEywE-19" value="&lt;span style=&quot;text-align: left;&quot;&gt;MONITORAR PARTICIPAÇÃO&lt;/span&gt;" style="ellipse;whiteSpace=wrap;html=1;" parent="-lAXZ4KLo43VhV0Jl56r-1" vertex="1">
          <mxGeometry x="540" y="359.5" width="100" height="60.5" as="geometry" />
        </mxCell>
        <mxCell id="OK6Kkgbx7uz40GMvEywE-21" value="" style="endArrow=none;html=1;rounded=0;exitX=0.5;exitY=0;exitDx=0;exitDy=0;entryX=0;entryY=1;entryDx=0;entryDy=0;" parent="-lAXZ4KLo43VhV0Jl56r-1" source="OK6Kkgbx7uz40GMvEywE-17" target="OK6Kkgbx7uz40GMvEywE-15" edge="1">
          <mxGeometry width="50" height="50" relative="1" as="geometry">
            <mxPoint x="300" y="400" as="sourcePoint" />
            <mxPoint x="494" y="326" as="targetPoint" />
          </mxGeometry>
        </mxCell>
        <mxCell id="OK6Kkgbx7uz40GMvEywE-22" value="" style="endArrow=none;html=1;rounded=0;exitX=0.5;exitY=0;exitDx=0;exitDy=0;" parent="-lAXZ4KLo43VhV0Jl56r-1" source="OK6Kkgbx7uz40GMvEywE-19" target="OK6Kkgbx7uz40GMvEywE-15" edge="1">
          <mxGeometry width="50" height="50" relative="1" as="geometry">
            <mxPoint x="300" y="400" as="sourcePoint" />
            <mxPoint x="350" y="350" as="targetPoint" />
          </mxGeometry>
        </mxCell>
        <mxCell id="OK6Kkgbx7uz40GMvEywE-23" value="" style="endArrow=classic;html=1;rounded=0;exitX=0;exitY=1;exitDx=0;exitDy=0;exitPerimeter=0;" parent="-lAXZ4KLo43VhV0Jl56r-1" source="-lAXZ4KLo43VhV0Jl56r-16" target="OK6Kkgbx7uz40GMvEywE-8" edge="1">
          <mxGeometry width="50" height="50" relative="1" as="geometry">
            <mxPoint x="300" y="400" as="sourcePoint" />
            <mxPoint x="320" y="250" as="targetPoint" />
          </mxGeometry>
        </mxCell>
        <mxCell id="OK6Kkgbx7uz40GMvEywE-24" value="&lt;div style=&quot;&quot;&gt;ADMINISTRAÇÃO DE CONTÉUDO&lt;/div&gt;" style="ellipse;whiteSpace=wrap;html=1;align=center;" parent="-lAXZ4KLo43VhV0Jl56r-1" vertex="1">
          <mxGeometry x="360" y="270" width="110" height="80" as="geometry" />
        </mxCell>
        <mxCell id="OK6Kkgbx7uz40GMvEywE-25" value="" style="endArrow=classic;html=1;rounded=0;exitX=0;exitY=1;exitDx=0;exitDy=0;exitPerimeter=0;entryX=1;entryY=0;entryDx=0;entryDy=0;" parent="-lAXZ4KLo43VhV0Jl56r-1" source="-lAXZ4KLo43VhV0Jl56r-20" target="OK6Kkgbx7uz40GMvEywE-24" edge="1">
          <mxGeometry width="50" height="50" relative="1" as="geometry">
            <mxPoint x="300" y="400" as="sourcePoint" />
            <mxPoint x="350" y="350" as="targetPoint" />
          </mxGeometry>
        </mxCell>
        <mxCell id="OK6Kkgbx7uz40GMvEywE-26" value="" style="endArrow=classic;html=1;rounded=0;exitX=1;exitY=1;exitDx=0;exitDy=0;exitPerimeter=0;" parent="-lAXZ4KLo43VhV0Jl56r-1" source="-lAXZ4KLo43VhV0Jl56r-16" target="OK6Kkgbx7uz40GMvEywE-24" edge="1">
          <mxGeometry width="50" height="50" relative="1" as="geometry">
            <mxPoint x="300" y="400" as="sourcePoint" />
            <mxPoint x="350" y="350" as="targetPoint" />
          </mxGeometry>
        </mxCell>
        <mxCell id="OK6Kkgbx7uz40GMvEywE-27" value="REALIZAR AVALIAÇÃO" style="ellipse;whiteSpace=wrap;html=1;" parent="-lAXZ4KLo43VhV0Jl56r-1" vertex="1">
          <mxGeometry x="140" y="270" width="90" height="60" as="geometry" />
        </mxCell>
        <mxCell id="OK6Kkgbx7uz40GMvEywE-28" value="" style="endArrow=classic;html=1;rounded=0;exitX=1;exitY=1;exitDx=0;exitDy=0;exitPerimeter=0;entryX=0.433;entryY=0.05;entryDx=0;entryDy=0;entryPerimeter=0;" parent="-lAXZ4KLo43VhV0Jl56r-1" source="-lAXZ4KLo43VhV0Jl56r-18" target="OK6Kkgbx7uz40GMvEywE-27" edge="1">
          <mxGeometry width="50" height="50" relative="1" as="geometry">
            <mxPoint x="300" y="400" as="sourcePoint" />
            <mxPoint x="350" y="350" as="targetPoint" />
          </mxGeometry>
        </mxCell>
        <mxCell id="OK6Kkgbx7uz40GMvEywE-20" value="" style="endArrow=none;html=1;rounded=0;exitX=0;exitY=0.5;exitDx=0;exitDy=0;" parent="1" source="OK6Kkgbx7uz40GMvEywE-19" edge="1">
          <mxGeometry width="50" height="50" relative="1" as="geometry">
            <mxPoint x="390" y="360" as="sourcePoint" />
            <mxPoint x="620" y="350" as="targetPoint" />
          </mxGeometry>
        </mxCell>
      </root>
    </mxGraphModel>
  </diagram>
  <diagram id="QAlCst0iOBJiLto_nvHK" name="Página-5">
    <mxGraphModel dx="955" dy="1675" grid="1" gridSize="10" guides="1" tooltips="1" connect="1" arrows="1" fold="1" page="1" pageScale="1" pageWidth="827" pageHeight="1169" background="light-dark(#FFFFFF, #6500a8)" math="0" shadow="0">
      <root>
        <mxCell id="0" />
        <mxCell id="1" parent="0" />
        <mxCell id="cAONW_KpWH1eQlRxAtps-14" value="ALUNO" style="swimlane;fontStyle=0;childLayout=stackLayout;horizontal=1;startSize=30;horizontalStack=0;resizeParent=1;resizeParentMax=0;resizeLast=0;collapsible=1;marginBottom=0;whiteSpace=wrap;html=1;" vertex="1" parent="1">
          <mxGeometry x="75" y="67" width="140" height="270" as="geometry" />
        </mxCell>
        <mxCell id="cAONW_KpWH1eQlRxAtps-30" value="NOME" style="text;strokeColor=none;fillColor=none;align=left;verticalAlign=middle;spacingLeft=4;spacingRight=4;overflow=hidden;points=[[0,0.5],[1,0.5]];portConstraint=eastwest;rotatable=0;whiteSpace=wrap;html=1;" vertex="1" parent="cAONW_KpWH1eQlRxAtps-14">
          <mxGeometry y="30" width="140" height="30" as="geometry" />
        </mxCell>
        <mxCell id="cAONW_KpWH1eQlRxAtps-29" value="EMAIL" style="text;strokeColor=none;fillColor=none;align=left;verticalAlign=middle;spacingLeft=4;spacingRight=4;overflow=hidden;points=[[0,0.5],[1,0.5]];portConstraint=eastwest;rotatable=0;whiteSpace=wrap;html=1;" vertex="1" parent="cAONW_KpWH1eQlRxAtps-14">
          <mxGeometry y="60" width="140" height="30" as="geometry" />
        </mxCell>
        <mxCell id="cAONW_KpWH1eQlRxAtps-16" value="TELEFONE" style="text;strokeColor=none;fillColor=none;align=left;verticalAlign=middle;spacingLeft=4;spacingRight=4;overflow=hidden;points=[[0,0.5],[1,0.5]];portConstraint=eastwest;rotatable=0;whiteSpace=wrap;html=1;" vertex="1" parent="cAONW_KpWH1eQlRxAtps-14">
          <mxGeometry y="90" width="140" height="30" as="geometry" />
        </mxCell>
        <mxCell id="cAONW_KpWH1eQlRxAtps-15" value="Fazer Login" style="text;strokeColor=none;fillColor=none;align=left;verticalAlign=middle;spacingLeft=4;spacingRight=4;overflow=hidden;points=[[0,0.5],[1,0.5]];portConstraint=eastwest;rotatable=0;whiteSpace=wrap;html=1;" vertex="1" parent="cAONW_KpWH1eQlRxAtps-14">
          <mxGeometry y="120" width="140" height="30" as="geometry" />
        </mxCell>
        <mxCell id="qnL4iJzDt3fKZk4dJiQD-1" value="Fazer Matrícula" style="text;strokeColor=none;fillColor=none;align=left;verticalAlign=middle;spacingLeft=4;spacingRight=4;overflow=hidden;points=[[0,0.5],[1,0.5]];portConstraint=eastwest;rotatable=0;whiteSpace=wrap;html=1;" vertex="1" parent="cAONW_KpWH1eQlRxAtps-14">
          <mxGeometry y="150" width="140" height="30" as="geometry" />
        </mxCell>
        <mxCell id="qnL4iJzDt3fKZk4dJiQD-2" value="Cancelar Matrícula" style="text;strokeColor=none;fillColor=none;align=left;verticalAlign=middle;spacingLeft=4;spacingRight=4;overflow=hidden;points=[[0,0.5],[1,0.5]];portConstraint=eastwest;rotatable=0;whiteSpace=wrap;html=1;" vertex="1" parent="cAONW_KpWH1eQlRxAtps-14">
          <mxGeometry y="180" width="140" height="30" as="geometry" />
        </mxCell>
        <mxCell id="cAONW_KpWH1eQlRxAtps-17" value="Realizar Avaliação" style="text;strokeColor=none;fillColor=none;align=left;verticalAlign=middle;spacingLeft=4;spacingRight=4;overflow=hidden;points=[[0,0.5],[1,0.5]];portConstraint=eastwest;rotatable=0;whiteSpace=wrap;html=1;" vertex="1" parent="cAONW_KpWH1eQlRxAtps-14">
          <mxGeometry y="210" width="140" height="30" as="geometry" />
        </mxCell>
        <mxCell id="XkA3JgFcsup_pkwuYUPP-1" value="Consultar Boletim" style="text;strokeColor=none;fillColor=none;align=left;verticalAlign=middle;spacingLeft=4;spacingRight=4;overflow=hidden;points=[[0,0.5],[1,0.5]];portConstraint=eastwest;rotatable=0;whiteSpace=wrap;html=1;" vertex="1" parent="cAONW_KpWH1eQlRxAtps-14">
          <mxGeometry y="240" width="140" height="30" as="geometry" />
        </mxCell>
        <mxCell id="cAONW_KpWH1eQlRxAtps-31" value="&lt;div&gt;&lt;br&gt;&lt;/div&gt;" style="endArrow=none;html=1;rounded=0;fontFamily=Helvetica;fontSize=12;fontColor=default;exitX=0;exitY=0.5;exitDx=0;exitDy=0;entryX=1;entryY=0.5;entryDx=0;entryDy=0;" edge="1" parent="cAONW_KpWH1eQlRxAtps-14">
          <mxGeometry width="50" height="50" relative="1" as="geometry">
            <mxPoint y="119" as="sourcePoint" />
            <mxPoint x="140" y="119" as="targetPoint" />
          </mxGeometry>
        </mxCell>
        <mxCell id="cAONW_KpWH1eQlRxAtps-18" value="PROFESSOR" style="swimlane;fontStyle=0;childLayout=stackLayout;horizontal=1;startSize=30;horizontalStack=0;resizeParent=1;resizeParentMax=0;resizeLast=0;collapsible=1;marginBottom=0;whiteSpace=wrap;html=1;" vertex="1" parent="1">
          <mxGeometry x="254" y="66" width="140" height="270" as="geometry" />
        </mxCell>
        <mxCell id="cAONW_KpWH1eQlRxAtps-21" value="NOME" style="text;strokeColor=none;fillColor=none;align=left;verticalAlign=middle;spacingLeft=4;spacingRight=4;overflow=hidden;points=[[0,0.5],[1,0.5]];portConstraint=eastwest;rotatable=0;whiteSpace=wrap;html=1;" vertex="1" parent="cAONW_KpWH1eQlRxAtps-18">
          <mxGeometry y="30" width="140" height="30" as="geometry" />
        </mxCell>
        <mxCell id="cAONW_KpWH1eQlRxAtps-19" value="EMAIL" style="text;strokeColor=none;fillColor=none;align=left;verticalAlign=middle;spacingLeft=4;spacingRight=4;overflow=hidden;points=[[0,0.5],[1,0.5]];portConstraint=eastwest;rotatable=0;whiteSpace=wrap;html=1;" vertex="1" parent="cAONW_KpWH1eQlRxAtps-18">
          <mxGeometry y="60" width="140" height="30" as="geometry" />
        </mxCell>
        <mxCell id="cAONW_KpWH1eQlRxAtps-20" value="TELEFONE" style="text;strokeColor=none;fillColor=none;align=left;verticalAlign=middle;spacingLeft=4;spacingRight=4;overflow=hidden;points=[[0,0.5],[1,0.5]];portConstraint=eastwest;rotatable=0;whiteSpace=wrap;html=1;" vertex="1" parent="cAONW_KpWH1eQlRxAtps-18">
          <mxGeometry y="90" width="140" height="30" as="geometry" />
        </mxCell>
        <mxCell id="XkA3JgFcsup_pkwuYUPP-2" value="Fazer Login" style="text;strokeColor=none;fillColor=none;align=left;verticalAlign=middle;spacingLeft=4;spacingRight=4;overflow=hidden;points=[[0,0.5],[1,0.5]];portConstraint=eastwest;rotatable=0;whiteSpace=wrap;html=1;" vertex="1" parent="cAONW_KpWH1eQlRxAtps-18">
          <mxGeometry y="120" width="140" height="30" as="geometry" />
        </mxCell>
        <mxCell id="XkA3JgFcsup_pkwuYUPP-3" value="&lt;div style=&quot;text-align: center;&quot;&gt;&lt;span style=&quot;background-color: transparent; color: light-dark(rgb(0, 0, 0), rgb(255, 255, 255));&quot;&gt;Administrar Contéudo&lt;/span&gt;&lt;/div&gt;" style="text;strokeColor=none;fillColor=none;align=left;verticalAlign=middle;spacingLeft=4;spacingRight=4;overflow=hidden;points=[[0,0.5],[1,0.5]];portConstraint=eastwest;rotatable=0;whiteSpace=wrap;html=1;" vertex="1" parent="cAONW_KpWH1eQlRxAtps-18">
          <mxGeometry y="150" width="140" height="30" as="geometry" />
        </mxCell>
        <mxCell id="DPWPYKvbHCfeETrhwDZ7-3" value="Aplicar Avaliação" style="text;strokeColor=none;fillColor=none;align=left;verticalAlign=middle;spacingLeft=4;spacingRight=4;overflow=hidden;points=[[0,0.5],[1,0.5]];portConstraint=eastwest;rotatable=0;whiteSpace=wrap;html=1;" vertex="1" parent="cAONW_KpWH1eQlRxAtps-18">
          <mxGeometry y="180" width="140" height="30" as="geometry" />
        </mxCell>
        <mxCell id="DPWPYKvbHCfeETrhwDZ7-2" value="Lançar Notas" style="text;strokeColor=none;fillColor=none;align=left;verticalAlign=middle;spacingLeft=4;spacingRight=4;overflow=hidden;points=[[0,0.5],[1,0.5]];portConstraint=eastwest;rotatable=0;whiteSpace=wrap;html=1;" vertex="1" parent="cAONW_KpWH1eQlRxAtps-18">
          <mxGeometry y="210" width="140" height="30" as="geometry" />
        </mxCell>
        <mxCell id="u8zmMiil9DI3QI-dfhZp-2" value="Consultar Boletim" style="text;strokeColor=none;fillColor=none;align=left;verticalAlign=middle;spacingLeft=4;spacingRight=4;overflow=hidden;points=[[0,0.5],[1,0.5]];portConstraint=eastwest;rotatable=0;whiteSpace=wrap;html=1;" vertex="1" parent="cAONW_KpWH1eQlRxAtps-18">
          <mxGeometry y="240" width="140" height="30" as="geometry" />
        </mxCell>
        <mxCell id="DPWPYKvbHCfeETrhwDZ7-1" value="" style="endArrow=none;html=1;rounded=0;fontFamily=Helvetica;fontSize=12;fontColor=default;exitX=0.007;exitY=0.073;exitDx=0;exitDy=0;exitPerimeter=0;entryX=0.999;entryY=0.009;entryDx=0;entryDy=0;entryPerimeter=0;" edge="1" parent="cAONW_KpWH1eQlRxAtps-18" source="XkA3JgFcsup_pkwuYUPP-2" target="XkA3JgFcsup_pkwuYUPP-2">
          <mxGeometry width="50" height="50" relative="1" as="geometry">
            <mxPoint x="41" y="161" as="sourcePoint" />
            <mxPoint x="91" y="111" as="targetPoint" />
          </mxGeometry>
        </mxCell>
        <mxCell id="cAONW_KpWH1eQlRxAtps-22" value="ATENDENTE" style="swimlane;fontStyle=0;childLayout=stackLayout;horizontal=1;startSize=30;horizontalStack=0;resizeParent=1;resizeParentMax=0;resizeLast=0;collapsible=1;marginBottom=0;whiteSpace=wrap;html=1;swimlaneLine=0;" vertex="1" parent="1">
          <mxGeometry x="445" y="67" width="140" height="270" as="geometry">
            <mxRectangle x="390" y="100" width="110" height="30" as="alternateBounds" />
          </mxGeometry>
        </mxCell>
        <mxCell id="cAONW_KpWH1eQlRxAtps-27" value="NOME" style="text;strokeColor=none;fillColor=none;align=left;verticalAlign=middle;spacingLeft=4;spacingRight=4;overflow=hidden;points=[[0,0.5],[1,0.5]];portConstraint=eastwest;rotatable=0;whiteSpace=wrap;html=1;" vertex="1" parent="cAONW_KpWH1eQlRxAtps-22">
          <mxGeometry y="30" width="140" height="30" as="geometry" />
        </mxCell>
        <mxCell id="cAONW_KpWH1eQlRxAtps-24" value="EMAIL" style="text;strokeColor=none;fillColor=none;align=left;verticalAlign=middle;spacingLeft=4;spacingRight=4;overflow=hidden;points=[[0,0.5],[1,0.5]];portConstraint=eastwest;rotatable=0;whiteSpace=wrap;html=1;" vertex="1" parent="cAONW_KpWH1eQlRxAtps-22">
          <mxGeometry y="60" width="140" height="30" as="geometry" />
        </mxCell>
        <mxCell id="cAONW_KpWH1eQlRxAtps-28" value="TELEFONE" style="text;strokeColor=none;fillColor=none;align=left;verticalAlign=middle;spacingLeft=4;spacingRight=4;overflow=hidden;points=[[0,0.5],[1,0.5]];portConstraint=eastwest;rotatable=0;whiteSpace=wrap;html=1;" vertex="1" parent="cAONW_KpWH1eQlRxAtps-22">
          <mxGeometry y="90" width="140" height="30" as="geometry" />
        </mxCell>
        <mxCell id="eQmNqp66CIFM4Llvpiyw-1" value="Fazer Login" style="text;strokeColor=none;fillColor=none;align=left;verticalAlign=middle;spacingLeft=4;spacingRight=4;overflow=hidden;points=[[0,0.5],[1,0.5]];portConstraint=eastwest;rotatable=0;whiteSpace=wrap;html=1;" vertex="1" parent="cAONW_KpWH1eQlRxAtps-22">
          <mxGeometry y="120" width="140" height="30" as="geometry" />
        </mxCell>
        <mxCell id="eQmNqp66CIFM4Llvpiyw-2" value="Administrar contéudo" style="text;strokeColor=none;fillColor=none;align=left;verticalAlign=middle;spacingLeft=4;spacingRight=4;overflow=hidden;points=[[0,0.5],[1,0.5]];portConstraint=eastwest;rotatable=0;whiteSpace=wrap;html=1;" vertex="1" parent="cAONW_KpWH1eQlRxAtps-22">
          <mxGeometry y="150" width="140" height="30" as="geometry" />
        </mxCell>
        <mxCell id="eQmNqp66CIFM4Llvpiyw-3" value="Gerenciar Matricula" style="text;strokeColor=none;fillColor=none;align=left;verticalAlign=middle;spacingLeft=4;spacingRight=4;overflow=hidden;points=[[0,0.5],[1,0.5]];portConstraint=eastwest;rotatable=0;whiteSpace=wrap;html=1;" vertex="1" parent="cAONW_KpWH1eQlRxAtps-22">
          <mxGeometry y="180" width="140" height="30" as="geometry" />
        </mxCell>
        <mxCell id="eQmNqp66CIFM4Llvpiyw-4" value="Gerenciar Atendimento" style="text;strokeColor=none;fillColor=none;align=left;verticalAlign=middle;spacingLeft=4;spacingRight=4;overflow=hidden;points=[[0,0.5],[1,0.5]];portConstraint=eastwest;rotatable=0;whiteSpace=wrap;html=1;" vertex="1" parent="cAONW_KpWH1eQlRxAtps-22">
          <mxGeometry y="210" width="140" height="30" as="geometry" />
        </mxCell>
        <mxCell id="qnL4iJzDt3fKZk4dJiQD-3" value="Monitorar Participação" style="text;strokeColor=none;fillColor=none;align=left;verticalAlign=middle;spacingLeft=4;spacingRight=4;overflow=hidden;points=[[0,0.5],[1,0.5]];portConstraint=eastwest;rotatable=0;whiteSpace=wrap;html=1;" vertex="1" parent="cAONW_KpWH1eQlRxAtps-22">
          <mxGeometry y="240" width="140" height="30" as="geometry" />
        </mxCell>
        <mxCell id="eQmNqp66CIFM4Llvpiyw-5" value="" style="endArrow=none;html=1;rounded=0;fontFamily=Helvetica;fontSize=12;fontColor=default;entryX=1;entryY=0.5;entryDx=0;entryDy=0;exitX=0;exitY=0.5;exitDx=0;exitDy=0;" edge="1" parent="cAONW_KpWH1eQlRxAtps-22">
          <mxGeometry width="50" height="50" relative="1" as="geometry">
            <mxPoint y="119" as="sourcePoint" />
            <mxPoint x="140" y="119" as="targetPoint" />
          </mxGeometry>
        </mxCell>
        <mxCell id="qnL4iJzDt3fKZk4dJiQD-4" value="FAZER LOGIN" style="swimlane;fontStyle=1;align=center;verticalAlign=top;childLayout=stackLayout;horizontal=1;startSize=26;horizontalStack=0;resizeParent=1;resizeParentMax=0;resizeLast=0;collapsible=1;marginBottom=0;whiteSpace=wrap;html=1;spacingLeft=4;spacingRight=4;fontFamily=Helvetica;fontSize=12;fontColor=default;fillColor=none;gradientColor=none;" vertex="1" parent="1">
          <mxGeometry x="240" y="-60" width="160" height="60" as="geometry" />
        </mxCell>
        <mxCell id="qnL4iJzDt3fKZk4dJiQD-6" value="" style="line;strokeWidth=1;fillColor=none;align=left;verticalAlign=middle;spacingTop=-1;spacingLeft=3;spacingRight=3;rotatable=0;labelPosition=right;points=[];portConstraint=eastwest;strokeColor=inherit;fontFamily=Helvetica;fontSize=12;fontColor=default;" vertex="1" parent="qnL4iJzDt3fKZk4dJiQD-4">
          <mxGeometry y="26" width="160" height="8" as="geometry" />
        </mxCell>
        <mxCell id="qnL4iJzDt3fKZk4dJiQD-7" value="CADASTRAR&amp;nbsp; USUA" style="text;strokeColor=none;fillColor=none;align=left;verticalAlign=top;spacingLeft=4;spacingRight=4;overflow=hidden;rotatable=0;points=[[0,0.5],[1,0.5]];portConstraint=eastwest;whiteSpace=wrap;html=1;fontFamily=Helvetica;fontSize=12;fontColor=default;" vertex="1" parent="qnL4iJzDt3fKZk4dJiQD-4">
          <mxGeometry y="34" width="160" height="26" as="geometry" />
        </mxCell>
        <mxCell id="qnL4iJzDt3fKZk4dJiQD-8" value="return" style="html=1;verticalAlign=bottom;endArrow=open;dashed=1;endSize=8;curved=0;rounded=0;fontFamily=Helvetica;fontSize=12;fontColor=default;" edge="1" parent="1">
          <mxGeometry relative="1" as="geometry">
            <mxPoint x="270" y="160" as="sourcePoint" />
            <mxPoint x="190" y="160" as="targetPoint" />
          </mxGeometry>
        </mxCell>
      </root>
    </mxGraphModel>
  </diagram>
  <diagram id="f6j2hyVYDb8U7BdbLpEU" name="Página-6">
    <mxGraphModel dx="4581" dy="2283" grid="1" gridSize="10" guides="1" tooltips="1" connect="1" arrows="1" fold="1" page="1" pageScale="1" pageWidth="827" pageHeight="1169" math="0" shadow="0">
      <root>
        <mxCell id="0" />
        <mxCell id="1" parent="0" />
        <mxCell id="m_QLnmTDewTzBmfhElaB-4" value="R" style="swimlane;startSize=0;fillColor=default;gradientColor=default;swimlaneFillColor=light-dark(transparent,#330066);" vertex="1" parent="1">
          <mxGeometry x="-2140" y="-400" width="1550" height="1280" as="geometry" />
        </mxCell>
        <mxCell id="m_QLnmTDewTzBmfhElaB-34" style="edgeStyle=orthogonalEdgeStyle;rounded=0;orthogonalLoop=1;jettySize=auto;html=1;exitX=0.5;exitY=0.5;exitDx=0;exitDy=0;exitPerimeter=0;entryX=0;entryY=0.5;entryDx=0;entryDy=0;" edge="1" parent="m_QLnmTDewTzBmfhElaB-4" source="m_QLnmTDewTzBmfhElaB-6" target="m_QLnmTDewTzBmfhElaB-21">
          <mxGeometry relative="1" as="geometry" />
        </mxCell>
        <mxCell id="m_QLnmTDewTzBmfhElaB-36" style="edgeStyle=orthogonalEdgeStyle;rounded=0;orthogonalLoop=1;jettySize=auto;html=1;exitX=1;exitY=0.3333333333333333;exitDx=0;exitDy=0;exitPerimeter=0;entryX=0;entryY=0.5;entryDx=0;entryDy=0;" edge="1" parent="m_QLnmTDewTzBmfhElaB-4" source="m_QLnmTDewTzBmfhElaB-6" target="m_QLnmTDewTzBmfhElaB-16">
          <mxGeometry relative="1" as="geometry" />
        </mxCell>
        <mxCell id="m_QLnmTDewTzBmfhElaB-37" style="edgeStyle=orthogonalEdgeStyle;rounded=0;orthogonalLoop=1;jettySize=auto;html=1;exitX=0.5;exitY=0;exitDx=0;exitDy=0;exitPerimeter=0;entryX=0;entryY=0.5;entryDx=0;entryDy=0;" edge="1" parent="m_QLnmTDewTzBmfhElaB-4" source="m_QLnmTDewTzBmfhElaB-6" target="m_QLnmTDewTzBmfhElaB-26">
          <mxGeometry relative="1" as="geometry" />
        </mxCell>
        <mxCell id="m_QLnmTDewTzBmfhElaB-38" style="edgeStyle=orthogonalEdgeStyle;rounded=0;orthogonalLoop=1;jettySize=auto;html=1;exitX=1;exitY=1;exitDx=0;exitDy=0;exitPerimeter=0;entryX=0;entryY=0.5;entryDx=0;entryDy=0;" edge="1" parent="m_QLnmTDewTzBmfhElaB-4" source="m_QLnmTDewTzBmfhElaB-6" target="m_QLnmTDewTzBmfhElaB-18">
          <mxGeometry relative="1" as="geometry" />
        </mxCell>
        <mxCell id="m_QLnmTDewTzBmfhElaB-39" style="edgeStyle=orthogonalEdgeStyle;rounded=0;orthogonalLoop=1;jettySize=auto;html=1;exitX=0;exitY=1;exitDx=0;exitDy=0;exitPerimeter=0;entryX=0;entryY=0.5;entryDx=0;entryDy=0;" edge="1" parent="m_QLnmTDewTzBmfhElaB-4" source="m_QLnmTDewTzBmfhElaB-6" target="m_QLnmTDewTzBmfhElaB-19">
          <mxGeometry relative="1" as="geometry" />
        </mxCell>
        <mxCell id="m_QLnmTDewTzBmfhElaB-6" value="&lt;font style=&quot;font-size: 18px; background-color: light-dark(transparent, rgb(255, 255, 255));&quot;&gt;GERENTE&lt;/font&gt;" style="shape=umlActor;verticalLabelPosition=bottom;verticalAlign=top;html=1;outlineConnect=0;fillColor=#1ba1e2;fontColor=#ffffff;strokeColor=#006EAF;" vertex="1" parent="m_QLnmTDewTzBmfhElaB-4">
          <mxGeometry x="868" y="722" width="150" height="300" as="geometry" />
        </mxCell>
        <mxCell id="m_QLnmTDewTzBmfhElaB-30" style="edgeStyle=orthogonalEdgeStyle;rounded=0;orthogonalLoop=1;jettySize=auto;html=1;exitX=0;exitY=0.3333333333333333;exitDx=0;exitDy=0;exitPerimeter=0;entryX=1;entryY=0.5;entryDx=0;entryDy=0;" edge="1" parent="m_QLnmTDewTzBmfhElaB-4" source="m_QLnmTDewTzBmfhElaB-8" target="m_QLnmTDewTzBmfhElaB-15">
          <mxGeometry relative="1" as="geometry" />
        </mxCell>
        <mxCell id="m_QLnmTDewTzBmfhElaB-31" style="edgeStyle=orthogonalEdgeStyle;rounded=0;orthogonalLoop=1;jettySize=auto;html=1;exitX=0.5;exitY=0.5;exitDx=0;exitDy=0;exitPerimeter=0;entryX=1;entryY=0.5;entryDx=0;entryDy=0;" edge="1" parent="m_QLnmTDewTzBmfhElaB-4" source="m_QLnmTDewTzBmfhElaB-8" target="m_QLnmTDewTzBmfhElaB-20">
          <mxGeometry relative="1" as="geometry" />
        </mxCell>
        <mxCell id="m_QLnmTDewTzBmfhElaB-32" style="edgeStyle=orthogonalEdgeStyle;rounded=0;orthogonalLoop=1;jettySize=auto;html=1;exitX=0;exitY=1;exitDx=0;exitDy=0;exitPerimeter=0;entryX=1;entryY=0.5;entryDx=0;entryDy=0;" edge="1" parent="m_QLnmTDewTzBmfhElaB-4" source="m_QLnmTDewTzBmfhElaB-8" target="m_QLnmTDewTzBmfhElaB-22">
          <mxGeometry relative="1" as="geometry" />
        </mxCell>
        <mxCell id="m_QLnmTDewTzBmfhElaB-8" value="&lt;font style=&quot;font-size: 18px; background-color: light-dark(transparent, rgb(255, 255, 255));&quot;&gt;ATENDENTE&lt;/font&gt;" style="shape=umlActor;verticalLabelPosition=bottom;verticalAlign=top;html=1;outlineConnect=0;fillColor=#a0522d;fontColor=#ffffff;strokeColor=#6D1F00;" vertex="1" parent="m_QLnmTDewTzBmfhElaB-4">
          <mxGeometry x="996" y="226" width="150" height="300" as="geometry" />
        </mxCell>
        <mxCell id="m_QLnmTDewTzBmfhElaB-40" style="edgeStyle=orthogonalEdgeStyle;rounded=0;orthogonalLoop=1;jettySize=auto;html=1;exitX=1;exitY=0.3333333333333333;exitDx=0;exitDy=0;exitPerimeter=0;entryX=0;entryY=0.5;entryDx=0;entryDy=0;" edge="1" parent="m_QLnmTDewTzBmfhElaB-4" source="m_QLnmTDewTzBmfhElaB-9" target="m_QLnmTDewTzBmfhElaB-23">
          <mxGeometry relative="1" as="geometry" />
        </mxCell>
        <mxCell id="m_QLnmTDewTzBmfhElaB-41" style="edgeStyle=orthogonalEdgeStyle;rounded=0;orthogonalLoop=1;jettySize=auto;html=1;exitX=0.5;exitY=0.5;exitDx=0;exitDy=0;exitPerimeter=0;entryX=0;entryY=0.5;entryDx=0;entryDy=0;" edge="1" parent="m_QLnmTDewTzBmfhElaB-4" source="m_QLnmTDewTzBmfhElaB-9" target="m_QLnmTDewTzBmfhElaB-25">
          <mxGeometry relative="1" as="geometry" />
        </mxCell>
        <mxCell id="m_QLnmTDewTzBmfhElaB-42" style="edgeStyle=orthogonalEdgeStyle;rounded=0;orthogonalLoop=1;jettySize=auto;html=1;exitX=1;exitY=1;exitDx=0;exitDy=0;exitPerimeter=0;entryX=0;entryY=0.5;entryDx=0;entryDy=0;" edge="1" parent="m_QLnmTDewTzBmfhElaB-4" source="m_QLnmTDewTzBmfhElaB-9" target="m_QLnmTDewTzBmfhElaB-24">
          <mxGeometry relative="1" as="geometry" />
        </mxCell>
        <mxCell id="m_QLnmTDewTzBmfhElaB-9" value="&lt;font style=&quot;font-size: 18px; background-color: light-dark(transparent, rgb(255, 255, 255));&quot;&gt;ADMINISTRADOR&lt;/font&gt;" style="shape=umlActor;verticalLabelPosition=bottom;verticalAlign=top;html=1;outlineConnect=0;fillColor=#008a00;fontColor=#ffffff;strokeColor=#005700;" vertex="1" parent="m_QLnmTDewTzBmfhElaB-4">
          <mxGeometry x="173" y="712" width="150" height="300" as="geometry" />
        </mxCell>
        <mxCell id="m_QLnmTDewTzBmfhElaB-13" value="&lt;font style=&quot;font-size: 18px;&quot;&gt;&lt;b&gt;VERIFICAR HISTÓRICO DE COMPRAS&lt;/b&gt;&lt;/font&gt;" style="ellipse;whiteSpace=wrap;html=1;fillColor=#6a00ff;strokeColor=#3700CC;fontColor=#ffffff;" vertex="1" parent="m_QLnmTDewTzBmfhElaB-4">
          <mxGeometry x="450" y="520" width="233" height="134" as="geometry" />
        </mxCell>
        <mxCell id="m_QLnmTDewTzBmfhElaB-14" value="&lt;font style=&quot;font-size: 18px;&quot;&gt;&lt;b&gt;REALIZAR COMPRAS&lt;/b&gt;&lt;/font&gt;" style="ellipse;whiteSpace=wrap;html=1;fillColor=#6a00ff;strokeColor=#3700CC;fontColor=#ffffff;" vertex="1" parent="m_QLnmTDewTzBmfhElaB-4">
          <mxGeometry x="450" y="360" width="240" height="150" as="geometry" />
        </mxCell>
        <mxCell id="m_QLnmTDewTzBmfhElaB-15" value="&lt;font style=&quot;font-size: 18px;&quot;&gt;&lt;b&gt;CONSULTAR PRODUTOS&lt;/b&gt;&lt;/font&gt;" style="ellipse;whiteSpace=wrap;html=1;fillColor=#6a00ff;strokeColor=#3700CC;fontColor=#ffffff;" vertex="1" parent="m_QLnmTDewTzBmfhElaB-4">
          <mxGeometry x="570" y="204" width="237" height="156" as="geometry" />
        </mxCell>
        <mxCell id="m_QLnmTDewTzBmfhElaB-16" value="&lt;font style=&quot;font-size: 18px;&quot;&gt;&lt;b&gt;GERENCIA ESTOQUE&lt;/b&gt;&lt;/font&gt;" style="ellipse;whiteSpace=wrap;html=1;fillColor=#6a00ff;strokeColor=#3700CC;fontColor=#ffffff;" vertex="1" parent="m_QLnmTDewTzBmfhElaB-4">
          <mxGeometry x="1127" y="710" width="273" height="110" as="geometry" />
        </mxCell>
        <mxCell id="m_QLnmTDewTzBmfhElaB-18" value="&lt;b&gt;&lt;font style=&quot;font-size: 18px;&quot;&gt;GERENCIA FORNECEDORES&lt;/font&gt;&lt;/b&gt;" style="ellipse;whiteSpace=wrap;html=1;fillColor=#6a00ff;strokeColor=#3700CC;fontColor=#ffffff;" vertex="1" parent="m_QLnmTDewTzBmfhElaB-4">
          <mxGeometry x="1140" y="940" width="300" height="100" as="geometry" />
        </mxCell>
        <mxCell id="m_QLnmTDewTzBmfhElaB-19" value="&lt;font style=&quot;font-size: 18px;&quot;&gt;&lt;b&gt;ATUALIZA PRODUTOS&lt;/b&gt;&lt;/font&gt;" style="ellipse;whiteSpace=wrap;html=1;fillColor=#6a00ff;strokeColor=#3700CC;fontColor=#ffffff;" vertex="1" parent="m_QLnmTDewTzBmfhElaB-4">
          <mxGeometry x="1139" y="1060" width="312" height="90" as="geometry" />
        </mxCell>
        <mxCell id="m_QLnmTDewTzBmfhElaB-20" value="&lt;font style=&quot;font-size: 18px;&quot;&gt;&lt;b style=&quot;&quot;&gt;REGISTRAR VENDAS&lt;/b&gt;&lt;/font&gt;" style="ellipse;whiteSpace=wrap;html=1;fillColor=#6a00ff;strokeColor=#3700CC;fontColor=#ffffff;" vertex="1" parent="m_QLnmTDewTzBmfhElaB-4">
          <mxGeometry x="700" y="362" width="250" height="148" as="geometry" />
        </mxCell>
        <mxCell id="m_QLnmTDewTzBmfhElaB-22" value="&lt;font style=&quot;font-size: 18px;&quot;&gt;&lt;b&gt;GERAR RELATÓRIO DE VENDAS&lt;/b&gt;&lt;/font&gt;" style="ellipse;whiteSpace=wrap;html=1;fillColor=#6a00ff;strokeColor=#3700CC;fontColor=#ffffff;" vertex="1" parent="m_QLnmTDewTzBmfhElaB-4">
          <mxGeometry x="705" y="520" width="240" height="140" as="geometry" />
        </mxCell>
        <mxCell id="m_QLnmTDewTzBmfhElaB-23" value="&lt;font style=&quot;font-size: 18px;&quot;&gt;&lt;b&gt;GERENCIA USUÁRIOS&lt;/b&gt;&lt;/font&gt;" style="ellipse;whiteSpace=wrap;html=1;fillColor=#6a00ff;strokeColor=#3700CC;fontColor=#ffffff;" vertex="1" parent="m_QLnmTDewTzBmfhElaB-4">
          <mxGeometry x="383" y="701" width="227" height="128" as="geometry" />
        </mxCell>
        <mxCell id="m_QLnmTDewTzBmfhElaB-24" value="&lt;font style=&quot;font-size: 18px;&quot;&gt;&lt;b&gt;CONFIGURA SISTEMA&lt;/b&gt;&lt;/font&gt;" style="ellipse;whiteSpace=wrap;html=1;fillColor=#6a00ff;strokeColor=#3700CC;fontColor=#ffffff;" vertex="1" parent="m_QLnmTDewTzBmfhElaB-4">
          <mxGeometry x="383" y="1000" width="227" height="123" as="geometry" />
        </mxCell>
        <mxCell id="m_QLnmTDewTzBmfhElaB-25" value="&lt;font style=&quot;font-size: 18px;&quot;&gt;&lt;b&gt;GERA RELATÓRIOS GERAIS&lt;/b&gt;&lt;/font&gt;" style="ellipse;whiteSpace=wrap;html=1;fillColor=#6a00ff;strokeColor=#3700CC;fontColor=#ffffff;" vertex="1" parent="m_QLnmTDewTzBmfhElaB-4">
          <mxGeometry x="380" y="860" width="230" height="121" as="geometry" />
        </mxCell>
        <mxCell id="m_QLnmTDewTzBmfhElaB-21" value="&lt;font style=&quot;font-size: 18px;&quot;&gt;&lt;b&gt;CADASTRA PRODUTOS&lt;/b&gt;&lt;/font&gt;" style="ellipse;whiteSpace=wrap;html=1;fillColor=#6a00ff;strokeColor=#3700CC;fontColor=#ffffff;" vertex="1" parent="m_QLnmTDewTzBmfhElaB-4">
          <mxGeometry x="1124" y="827" width="276" height="100" as="geometry" />
        </mxCell>
        <mxCell id="m_QLnmTDewTzBmfhElaB-26" value="&lt;font style=&quot;font-size: 18px;&quot;&gt;&lt;b&gt;GERA RELATÓRIOS DE ESTOQUE&lt;/b&gt;&lt;/font&gt;" style="ellipse;whiteSpace=wrap;html=1;fillColor=#6a00ff;strokeColor=#3700CC;fontColor=#ffffff;" vertex="1" parent="m_QLnmTDewTzBmfhElaB-4">
          <mxGeometry x="1131" y="570" width="289" height="122" as="geometry" />
        </mxCell>
        <mxCell id="m_QLnmTDewTzBmfhElaB-45" value="&lt;font face=&quot;Times New Roman&quot; style=&quot;font-size: 24px;&quot;&gt;DIAGRAMA CASOS DE USO&amp;nbsp; FARMÁCIA&lt;br&gt;&lt;/font&gt;" style="text;align=center;fontStyle=1;verticalAlign=middle;spacingLeft=3;spacingRight=3;strokeColor=none;rotatable=0;points=[[0,0.5],[1,0.5]];portConstraint=eastwest;html=1;" vertex="1" parent="m_QLnmTDewTzBmfhElaB-4">
          <mxGeometry x="417.34999999999997" y="50" width="715.31" height="170" as="geometry" />
        </mxCell>
        <mxCell id="m_QLnmTDewTzBmfhElaB-46" value="&lt;font face=&quot;Times New Roman&quot; style=&quot;font-size: 24px;&quot;&gt;&lt;i&gt;LUIZ GABRIEL B ALVES.&lt;/i&gt;&lt;br&gt;&lt;/font&gt;" style="text;align=center;fontStyle=1;verticalAlign=middle;spacingLeft=3;spacingRight=3;strokeColor=none;rotatable=0;points=[[0,0.5],[1,0.5]];portConstraint=eastwest;html=1;" vertex="1" parent="m_QLnmTDewTzBmfhElaB-4">
          <mxGeometry x="1100" y="1150" width="547" height="130" as="geometry" />
        </mxCell>
        <mxCell id="m_QLnmTDewTzBmfhElaB-27" style="edgeStyle=orthogonalEdgeStyle;rounded=0;orthogonalLoop=1;jettySize=auto;html=1;exitX=1;exitY=0.3333333333333333;exitDx=0;exitDy=0;exitPerimeter=0;entryX=0;entryY=0.5;entryDx=0;entryDy=0;" edge="1" parent="1" source="m_QLnmTDewTzBmfhElaB-7" target="m_QLnmTDewTzBmfhElaB-15">
          <mxGeometry relative="1" as="geometry" />
        </mxCell>
        <mxCell id="m_QLnmTDewTzBmfhElaB-28" style="edgeStyle=orthogonalEdgeStyle;rounded=0;orthogonalLoop=1;jettySize=auto;html=1;exitX=0.5;exitY=0.5;exitDx=0;exitDy=0;exitPerimeter=0;entryX=0;entryY=0.5;entryDx=0;entryDy=0;" edge="1" parent="1" source="m_QLnmTDewTzBmfhElaB-7" target="m_QLnmTDewTzBmfhElaB-14">
          <mxGeometry relative="1" as="geometry" />
        </mxCell>
        <mxCell id="m_QLnmTDewTzBmfhElaB-29" style="edgeStyle=orthogonalEdgeStyle;rounded=0;orthogonalLoop=1;jettySize=auto;html=1;exitX=1;exitY=1;exitDx=0;exitDy=0;exitPerimeter=0;entryX=0;entryY=0.5;entryDx=0;entryDy=0;" edge="1" parent="1" source="m_QLnmTDewTzBmfhElaB-7" target="m_QLnmTDewTzBmfhElaB-13">
          <mxGeometry relative="1" as="geometry" />
        </mxCell>
        <mxCell id="m_QLnmTDewTzBmfhElaB-7" value="&lt;font style=&quot;font-size: 18px; background-color: light-dark(transparent, rgb(255, 255, 255));&quot;&gt;CLIENTE&lt;/font&gt;" style="shape=umlActor;verticalLabelPosition=bottom;verticalAlign=top;html=1;outlineConnect=0;fillColor=#a20025;strokeColor=#6F0000;fontColor=#ffffff;" vertex="1" parent="1">
          <mxGeometry x="-1937" y="-144" width="150" height="300" as="geometry" />
        </mxCell>
      </root>
    </mxGraphModel>
  </diagram>
  <diagram id="l6_vHxNy8mnGGpgRXFUi" name="Página-7">
    <mxGraphModel dx="1044" dy="562" grid="1" gridSize="10" guides="1" tooltips="1" connect="1" arrows="1" fold="1" page="1" pageScale="1" pageWidth="827" pageHeight="1169" math="0" shadow="0">
      <root>
        <mxCell id="0" />
        <mxCell id="1" parent="0" />
        <mxCell id="ITymzSJzLNPJ3fZZI8Af-1" value="Produtos" style="swimlane;fontStyle=0;childLayout=stackLayout;horizontal=1;startSize=26;fillColor=none;horizontalStack=0;resizeParent=1;resizeParentMax=0;resizeLast=0;collapsible=1;marginBottom=0;whiteSpace=wrap;html=1;" vertex="1" parent="1">
          <mxGeometry x="274" y="540" width="140" height="104" as="geometry" />
        </mxCell>
        <mxCell id="ITymzSJzLNPJ3fZZI8Af-2" value="validade" style="text;strokeColor=none;fillColor=none;align=left;verticalAlign=top;spacingLeft=4;spacingRight=4;overflow=hidden;rotatable=0;points=[[0,0.5],[1,0.5]];portConstraint=eastwest;whiteSpace=wrap;html=1;" vertex="1" parent="ITymzSJzLNPJ3fZZI8Af-1">
          <mxGeometry y="26" width="140" height="26" as="geometry" />
        </mxCell>
        <mxCell id="ITymzSJzLNPJ3fZZI8Af-3" value="receita" style="text;strokeColor=none;fillColor=none;align=left;verticalAlign=top;spacingLeft=4;spacingRight=4;overflow=hidden;rotatable=0;points=[[0,0.5],[1,0.5]];portConstraint=eastwest;whiteSpace=wrap;html=1;" vertex="1" parent="ITymzSJzLNPJ3fZZI8Af-1">
          <mxGeometry y="52" width="140" height="26" as="geometry" />
        </mxCell>
        <mxCell id="ITymzSJzLNPJ3fZZI8Af-4" value="cadastro" style="text;strokeColor=none;fillColor=none;align=left;verticalAlign=top;spacingLeft=4;spacingRight=4;overflow=hidden;rotatable=0;points=[[0,0.5],[1,0.5]];portConstraint=eastwest;whiteSpace=wrap;html=1;" vertex="1" parent="ITymzSJzLNPJ3fZZI8Af-1">
          <mxGeometry y="78" width="140" height="26" as="geometry" />
        </mxCell>
        <mxCell id="ITymzSJzLNPJ3fZZI8Af-16" style="edgeStyle=orthogonalEdgeStyle;rounded=0;orthogonalLoop=1;jettySize=auto;html=1;exitX=0.5;exitY=1;exitDx=0;exitDy=0;entryX=0.5;entryY=0;entryDx=0;entryDy=0;" edge="1" parent="1" source="ITymzSJzLNPJ3fZZI8Af-5" target="ITymzSJzLNPJ3fZZI8Af-1">
          <mxGeometry relative="1" as="geometry" />
        </mxCell>
        <mxCell id="ITymzSJzLNPJ3fZZI8Af-5" value="Estoque" style="swimlane;fontStyle=0;childLayout=stackLayout;horizontal=1;startSize=30;fillColor=none;horizontalStack=0;resizeParent=1;resizeParentMax=0;resizeLast=0;collapsible=1;marginBottom=0;whiteSpace=wrap;html=1;" vertex="1" parent="1">
          <mxGeometry x="274" y="480" width="150" height="30" as="geometry" />
        </mxCell>
        <mxCell id="ITymzSJzLNPJ3fZZI8Af-11" value="Cliente" style="swimlane;fontStyle=0;childLayout=stackLayout;horizontal=1;startSize=26;fillColor=none;horizontalStack=0;resizeParent=1;resizeParentMax=0;resizeLast=0;collapsible=1;marginBottom=0;whiteSpace=wrap;html=1;" vertex="1" parent="1">
          <mxGeometry x="80" y="542" width="140" height="100" as="geometry" />
        </mxCell>
        <mxCell id="ITymzSJzLNPJ3fZZI8Af-12" value="nome&lt;div&gt;telefone&lt;/div&gt;&lt;div&gt;endereço&lt;/div&gt;&lt;div&gt;receita&lt;/div&gt;" style="text;strokeColor=none;fillColor=none;align=left;verticalAlign=top;spacingLeft=4;spacingRight=4;overflow=hidden;rotatable=0;points=[[0,0.5],[1,0.5]];portConstraint=eastwest;whiteSpace=wrap;html=1;" vertex="1" parent="ITymzSJzLNPJ3fZZI8Af-11">
          <mxGeometry y="26" width="140" height="74" as="geometry" />
        </mxCell>
        <mxCell id="ITymzSJzLNPJ3fZZI8Af-28" style="edgeStyle=orthogonalEdgeStyle;rounded=0;orthogonalLoop=1;jettySize=auto;html=1;exitX=0;exitY=0.5;exitDx=0;exitDy=0;" edge="1" parent="1" source="ITymzSJzLNPJ3fZZI8Af-15">
          <mxGeometry relative="1" as="geometry">
            <mxPoint x="150" y="650" as="targetPoint" />
          </mxGeometry>
        </mxCell>
        <mxCell id="ITymzSJzLNPJ3fZZI8Af-15" value="venda" style="swimlane;fontStyle=0;childLayout=stackLayout;horizontal=1;startSize=30;fillColor=none;horizontalStack=0;resizeParent=1;resizeParentMax=0;resizeLast=0;collapsible=1;marginBottom=0;whiteSpace=wrap;html=1;" vertex="1" parent="1">
          <mxGeometry x="269" y="676" width="150" height="30" as="geometry" />
        </mxCell>
        <mxCell id="ITymzSJzLNPJ3fZZI8Af-19" style="edgeStyle=orthogonalEdgeStyle;rounded=0;orthogonalLoop=1;jettySize=auto;html=1;exitX=0.5;exitY=1;exitDx=0;exitDy=0;entryX=0.5;entryY=0;entryDx=0;entryDy=0;" edge="1" parent="1">
          <mxGeometry relative="1" as="geometry">
            <mxPoint x="352" y="644" as="sourcePoint" />
            <mxPoint x="347" y="674" as="targetPoint" />
          </mxGeometry>
        </mxCell>
        <mxCell id="ITymzSJzLNPJ3fZZI8Af-25" style="edgeStyle=orthogonalEdgeStyle;rounded=0;orthogonalLoop=1;jettySize=auto;html=1;exitX=0.5;exitY=1;exitDx=0;exitDy=0;entryX=0.5;entryY=0;entryDx=0;entryDy=0;" edge="1" parent="1" source="ITymzSJzLNPJ3fZZI8Af-20" target="ITymzSJzLNPJ3fZZI8Af-5">
          <mxGeometry relative="1" as="geometry" />
        </mxCell>
        <mxCell id="ITymzSJzLNPJ3fZZI8Af-20" value="Fornecedor" style="swimlane;fontStyle=0;childLayout=stackLayout;horizontal=1;startSize=26;fillColor=none;horizontalStack=0;resizeParent=1;resizeParentMax=0;resizeLast=0;collapsible=1;marginBottom=0;whiteSpace=wrap;html=1;" vertex="1" parent="1">
          <mxGeometry x="274" y="430" width="140" height="20" as="geometry" />
        </mxCell>
        <mxCell id="ITymzSJzLNPJ3fZZI8Af-26" style="edgeStyle=orthogonalEdgeStyle;rounded=0;orthogonalLoop=1;jettySize=auto;html=1;exitX=1;exitY=0.5;exitDx=0;exitDy=0;entryX=0;entryY=0.5;entryDx=0;entryDy=0;" edge="1" parent="1" source="ITymzSJzLNPJ3fZZI8Af-12" target="ITymzSJzLNPJ3fZZI8Af-3">
          <mxGeometry relative="1" as="geometry" />
        </mxCell>
        <mxCell id="ITymzSJzLNPJ3fZZI8Af-38" style="edgeStyle=orthogonalEdgeStyle;rounded=0;orthogonalLoop=1;jettySize=auto;html=1;exitX=0;exitY=0.5;exitDx=0;exitDy=0;entryX=1;entryY=0.5;entryDx=0;entryDy=0;" edge="1" parent="1" source="ITymzSJzLNPJ3fZZI8Af-29" target="ITymzSJzLNPJ3fZZI8Af-15">
          <mxGeometry relative="1" as="geometry" />
        </mxCell>
        <mxCell id="ITymzSJzLNPJ3fZZI8Af-39" style="edgeStyle=orthogonalEdgeStyle;rounded=0;orthogonalLoop=1;jettySize=auto;html=1;exitX=0;exitY=0;exitDx=0;exitDy=0;entryX=1;entryY=0.5;entryDx=0;entryDy=0;" edge="1" parent="1" source="ITymzSJzLNPJ3fZZI8Af-29" target="ITymzSJzLNPJ3fZZI8Af-4">
          <mxGeometry relative="1" as="geometry" />
        </mxCell>
        <mxCell id="ITymzSJzLNPJ3fZZI8Af-29" value="Atendente" style="swimlane;fontStyle=0;childLayout=stackLayout;horizontal=1;startSize=26;fillColor=none;horizontalStack=0;resizeParent=1;resizeParentMax=0;resizeLast=0;collapsible=1;marginBottom=0;whiteSpace=wrap;html=1;" vertex="1" parent="1">
          <mxGeometry x="470" y="680" width="140" height="26" as="geometry" />
        </mxCell>
        <mxCell id="ITymzSJzLNPJ3fZZI8Af-32" style="edgeStyle=orthogonalEdgeStyle;rounded=0;orthogonalLoop=1;jettySize=auto;html=1;exitX=0;exitY=0;exitDx=0;exitDy=0;entryX=1;entryY=0.25;entryDx=0;entryDy=0;" edge="1" parent="1" source="ITymzSJzLNPJ3fZZI8Af-31" target="ITymzSJzLNPJ3fZZI8Af-20">
          <mxGeometry relative="1" as="geometry" />
        </mxCell>
        <mxCell id="ITymzSJzLNPJ3fZZI8Af-33" style="edgeStyle=orthogonalEdgeStyle;rounded=0;orthogonalLoop=1;jettySize=auto;html=1;exitX=0;exitY=0.75;exitDx=0;exitDy=0;entryX=1;entryY=0.75;entryDx=0;entryDy=0;" edge="1" parent="1" source="ITymzSJzLNPJ3fZZI8Af-31" target="ITymzSJzLNPJ3fZZI8Af-5">
          <mxGeometry relative="1" as="geometry" />
        </mxCell>
        <mxCell id="ITymzSJzLNPJ3fZZI8Af-35" style="edgeStyle=orthogonalEdgeStyle;rounded=0;orthogonalLoop=1;jettySize=auto;html=1;exitX=0;exitY=1;exitDx=0;exitDy=0;entryX=1;entryY=0.5;entryDx=0;entryDy=0;" edge="1" parent="1" source="ITymzSJzLNPJ3fZZI8Af-31" target="ITymzSJzLNPJ3fZZI8Af-3">
          <mxGeometry relative="1" as="geometry" />
        </mxCell>
        <mxCell id="ITymzSJzLNPJ3fZZI8Af-31" value="Gerente" style="swimlane;fontStyle=0;childLayout=stackLayout;horizontal=1;startSize=26;fillColor=none;horizontalStack=0;resizeParent=1;resizeParentMax=0;resizeLast=0;collapsible=1;marginBottom=0;whiteSpace=wrap;html=1;" vertex="1" parent="1">
          <mxGeometry x="504" y="454" width="140" height="26" as="geometry" />
        </mxCell>
        <mxCell id="ITymzSJzLNPJ3fZZI8Af-36" value="DIAGRAMA CLASSES FARMÁCIA" style="swimlane;whiteSpace=wrap;html=1;" vertex="1" parent="1">
          <mxGeometry x="30" y="290" width="690" height="540" as="geometry" />
        </mxCell>
        <mxCell id="sot4BsMKZsZkkIUyAI_p-1" value="MON" style="text;strokeColor=none;align=center;fillColor=none;html=1;verticalAlign=middle;whiteSpace=wrap;rounded=0;" vertex="1" parent="1">
          <mxGeometry x="340" y="560" width="60" height="30" as="geometry" />
        </mxCell>
      </root>
    </mxGraphModel>
  </diagram>
  <diagram id="GSLH3Xtkz5Ws-fhI_Ay8" name="Página-8">
    <mxGraphModel dx="1044" dy="562" grid="1" gridSize="10" guides="1" tooltips="1" connect="1" arrows="1" fold="1" page="1" pageScale="1" pageWidth="827" pageHeight="1169" math="0" shadow="0">
      <root>
        <mxCell id="0" />
        <mxCell id="1" parent="0" />
        <mxCell id="8luo3rioZ7wiC39ir5Xn-5" style="edgeStyle=orthogonalEdgeStyle;rounded=0;orthogonalLoop=1;jettySize=auto;html=1;exitX=1;exitY=0.3333333333333333;exitDx=0;exitDy=0;exitPerimeter=0;" edge="1" parent="1" source="8luo3rioZ7wiC39ir5Xn-1" target="8luo3rioZ7wiC39ir5Xn-3">
          <mxGeometry relative="1" as="geometry" />
        </mxCell>
        <mxCell id="8luo3rioZ7wiC39ir5Xn-6" style="edgeStyle=orthogonalEdgeStyle;rounded=0;orthogonalLoop=1;jettySize=auto;html=1;exitX=0.75;exitY=0.1;exitDx=0;exitDy=0;exitPerimeter=0;entryX=0;entryY=0.5;entryDx=0;entryDy=0;" edge="1" parent="1" source="8luo3rioZ7wiC39ir5Xn-1" target="8luo3rioZ7wiC39ir5Xn-2">
          <mxGeometry relative="1" as="geometry" />
        </mxCell>
        <mxCell id="8luo3rioZ7wiC39ir5Xn-7" style="edgeStyle=orthogonalEdgeStyle;rounded=0;orthogonalLoop=1;jettySize=auto;html=1;exitX=1;exitY=1;exitDx=0;exitDy=0;exitPerimeter=0;entryX=0;entryY=0.5;entryDx=0;entryDy=0;" edge="1" parent="1" source="8luo3rioZ7wiC39ir5Xn-1" target="8luo3rioZ7wiC39ir5Xn-4">
          <mxGeometry relative="1" as="geometry" />
        </mxCell>
        <mxCell id="8luo3rioZ7wiC39ir5Xn-1" value="ALUNO" style="shape=umlActor;verticalLabelPosition=bottom;verticalAlign=top;html=1;outlineConnect=0;" vertex="1" parent="1">
          <mxGeometry x="100" y="523" width="30" height="60" as="geometry" />
        </mxCell>
        <mxCell id="8luo3rioZ7wiC39ir5Xn-2" value="SE MATRICULAR" style="ellipse;whiteSpace=wrap;html=1;" vertex="1" parent="1">
          <mxGeometry x="210" y="450" width="140" height="70" as="geometry" />
        </mxCell>
        <mxCell id="8luo3rioZ7wiC39ir5Xn-3" value="AGENDAR AULAS" style="ellipse;whiteSpace=wrap;html=1;" vertex="1" parent="1">
          <mxGeometry x="210" y="530" width="140" height="70" as="geometry" />
        </mxCell>
        <mxCell id="8luo3rioZ7wiC39ir5Xn-4" value="CONSULTAR HORÁRIOS" style="ellipse;whiteSpace=wrap;html=1;" vertex="1" parent="1">
          <mxGeometry x="210" y="610" width="140" height="70" as="geometry" />
        </mxCell>
        <mxCell id="8luo3rioZ7wiC39ir5Xn-13" style="edgeStyle=orthogonalEdgeStyle;rounded=0;orthogonalLoop=1;jettySize=auto;html=1;exitX=1;exitY=0.3333333333333333;exitDx=0;exitDy=0;exitPerimeter=0;entryX=0;entryY=0.5;entryDx=0;entryDy=0;" edge="1" parent="1" source="8luo3rioZ7wiC39ir5Xn-8" target="8luo3rioZ7wiC39ir5Xn-9">
          <mxGeometry relative="1" as="geometry" />
        </mxCell>
        <mxCell id="8luo3rioZ7wiC39ir5Xn-8" value="INSTRUTOR" style="shape=umlActor;verticalLabelPosition=bottom;verticalAlign=top;html=1;" vertex="1" parent="1">
          <mxGeometry x="470" y="510" width="30" height="60" as="geometry" />
        </mxCell>
        <mxCell id="8luo3rioZ7wiC39ir5Xn-9" value="CRIAR TREINOS" style="ellipse;whiteSpace=wrap;html=1;" vertex="1" parent="1">
          <mxGeometry x="580" y="470" width="140" height="70" as="geometry" />
        </mxCell>
        <mxCell id="8luo3rioZ7wiC39ir5Xn-10" value="REGISTRAR FRENQUÊNCIA" style="ellipse;whiteSpace=wrap;html=1;" vertex="1" parent="1">
          <mxGeometry x="580" y="550" width="140" height="70" as="geometry" />
        </mxCell>
        <mxCell id="8luo3rioZ7wiC39ir5Xn-14" style="edgeStyle=orthogonalEdgeStyle;rounded=0;orthogonalLoop=1;jettySize=auto;html=1;exitX=1;exitY=1;exitDx=0;exitDy=0;exitPerimeter=0;entryX=0.06;entryY=0.5;entryDx=0;entryDy=0;entryPerimeter=0;" edge="1" parent="1" source="8luo3rioZ7wiC39ir5Xn-8" target="8luo3rioZ7wiC39ir5Xn-10">
          <mxGeometry relative="1" as="geometry" />
        </mxCell>
        <mxCell id="8luo3rioZ7wiC39ir5Xn-22" style="edgeStyle=orthogonalEdgeStyle;rounded=0;orthogonalLoop=1;jettySize=auto;html=1;exitX=1;exitY=0.3333333333333333;exitDx=0;exitDy=0;exitPerimeter=0;" edge="1" parent="1" source="8luo3rioZ7wiC39ir5Xn-18" target="8luo3rioZ7wiC39ir5Xn-20">
          <mxGeometry relative="1" as="geometry" />
        </mxCell>
        <mxCell id="8luo3rioZ7wiC39ir5Xn-23" style="edgeStyle=orthogonalEdgeStyle;rounded=0;orthogonalLoop=1;jettySize=auto;html=1;exitX=1;exitY=1;exitDx=0;exitDy=0;exitPerimeter=0;entryX=0;entryY=0.5;entryDx=0;entryDy=0;" edge="1" parent="1" source="8luo3rioZ7wiC39ir5Xn-18" target="8luo3rioZ7wiC39ir5Xn-21">
          <mxGeometry relative="1" as="geometry" />
        </mxCell>
        <mxCell id="8luo3rioZ7wiC39ir5Xn-18" value="GERENTE" style="shape=umlActor;verticalLabelPosition=bottom;verticalAlign=top;html=1;" vertex="1" parent="1">
          <mxGeometry x="399" y="740" width="30" height="60" as="geometry" />
        </mxCell>
        <mxCell id="8luo3rioZ7wiC39ir5Xn-20" value="GERENCIAR PLANOS" style="ellipse;whiteSpace=wrap;html=1;" vertex="1" parent="1">
          <mxGeometry x="480" y="695" width="140" height="70" as="geometry" />
        </mxCell>
        <mxCell id="8luo3rioZ7wiC39ir5Xn-21" value="GERENCIAR PAGAMENTOS" style="ellipse;whiteSpace=wrap;html=1;" vertex="1" parent="1">
          <mxGeometry x="480" y="775" width="140" height="70" as="geometry" />
        </mxCell>
        <mxCell id="8luo3rioZ7wiC39ir5Xn-24" value="CASOS DE USO ACADEMIA" style="swimlane;whiteSpace=wrap;html=1;" vertex="1" parent="1">
          <mxGeometry x="70" y="320" width="670" height="550" as="geometry" />
        </mxCell>
      </root>
    </mxGraphModel>
  </diagram>
  <diagram id="6qWy4fCBv32JunMasxbF" name="Página-9">
    <mxGraphModel dx="1044" dy="562" grid="1" gridSize="10" guides="1" tooltips="1" connect="1" arrows="1" fold="1" page="1" pageScale="1" pageWidth="827" pageHeight="1169" math="0" shadow="0">
      <root>
        <mxCell id="0" />
        <mxCell id="1" parent="0" />
        <mxCell id="2cPY0iHRhw3FmmrZWizR-3" style="edgeStyle=orthogonalEdgeStyle;rounded=0;orthogonalLoop=1;jettySize=auto;html=1;exitX=1;exitY=0.5;exitDx=0;exitDy=0;entryX=0;entryY=0.5;entryDx=0;entryDy=0;" edge="1" parent="1" source="97LBssY3jsetB7Tuygue-5" target="kdH_FoZ5XlBiUzMbsVr1-1">
          <mxGeometry relative="1" as="geometry" />
        </mxCell>
        <mxCell id="2cPY0iHRhw3FmmrZWizR-9" style="edgeStyle=orthogonalEdgeStyle;rounded=0;orthogonalLoop=1;jettySize=auto;html=1;exitX=0.5;exitY=1;exitDx=0;exitDy=0;entryX=0;entryY=0.5;entryDx=0;entryDy=0;" edge="1" parent="1" source="97LBssY3jsetB7Tuygue-5" target="2cPY0iHRhw3FmmrZWizR-8">
          <mxGeometry relative="1" as="geometry" />
        </mxCell>
        <mxCell id="tGiBc6qZVjk7WyijXUeJ-3" style="edgeStyle=orthogonalEdgeStyle;rounded=0;orthogonalLoop=1;jettySize=auto;html=1;exitX=0;exitY=0.75;exitDx=0;exitDy=0;entryX=0.5;entryY=1;entryDx=0;entryDy=0;" edge="1" parent="1" source="97LBssY3jsetB7Tuygue-5" target="tGiBc6qZVjk7WyijXUeJ-1">
          <mxGeometry relative="1" as="geometry" />
        </mxCell>
        <mxCell id="97LBssY3jsetB7Tuygue-5" value="&lt;p style=&quot;margin:0px;margin-top:4px;text-align:center;&quot;&gt;&lt;b&gt;ALUNO&lt;/b&gt;&lt;/p&gt;&lt;hr size=&quot;1&quot; style=&quot;border-style:solid;&quot;&gt;&lt;p style=&quot;margin:0px;margin-left:4px;&quot;&gt;+nome&lt;br&gt;+telefone&lt;/p&gt;&lt;hr size=&quot;1&quot; style=&quot;border-style:solid;&quot;&gt;&lt;p style=&quot;margin:0px;margin-left:4px;&quot;&gt;+ se matricular&lt;br&gt;+ agendar aulas&lt;/p&gt;&lt;p style=&quot;margin:0px;margin-left:4px;&quot;&gt;+ consultar horários&lt;/p&gt;" style="verticalAlign=top;align=left;overflow=fill;html=1;whiteSpace=wrap;" vertex="1" parent="1">
          <mxGeometry x="136" y="180" width="160" height="120" as="geometry" />
        </mxCell>
        <mxCell id="2cPY0iHRhw3FmmrZWizR-10" style="edgeStyle=orthogonalEdgeStyle;rounded=0;orthogonalLoop=1;jettySize=auto;html=1;exitX=0;exitY=1;exitDx=0;exitDy=0;entryX=0.5;entryY=0;entryDx=0;entryDy=0;" edge="1" parent="1" source="kdH_FoZ5XlBiUzMbsVr1-1" target="2cPY0iHRhw3FmmrZWizR-8">
          <mxGeometry relative="1" as="geometry" />
        </mxCell>
        <mxCell id="kdH_FoZ5XlBiUzMbsVr1-1" value="&lt;p style=&quot;margin:0px;margin-top:4px;text-align:center;&quot;&gt;&lt;b&gt;INSTRUTOR&lt;/b&gt;&lt;/p&gt;&lt;hr size=&quot;1&quot; style=&quot;border-style:solid;&quot;&gt;&lt;p style=&quot;margin:0px;margin-left:4px;&quot;&gt;+nome&lt;br&gt;+telefone&lt;/p&gt;&lt;hr size=&quot;1&quot; style=&quot;border-style:solid;&quot;&gt;&lt;p style=&quot;margin:0px;margin-left:4px;&quot;&gt;+ criar treinos&lt;br&gt;+ registrar frequência&lt;/p&gt;" style="verticalAlign=top;align=left;overflow=fill;html=1;whiteSpace=wrap;" vertex="1" parent="1">
          <mxGeometry x="334" y="185" width="160" height="110" as="geometry" />
        </mxCell>
        <mxCell id="kdH_FoZ5XlBiUzMbsVr1-2" value="&lt;p style=&quot;margin:0px;margin-top:4px;text-align:center;&quot;&gt;&lt;b&gt;GERENTE&lt;/b&gt;&lt;/p&gt;&lt;hr size=&quot;1&quot; style=&quot;border-style:solid;&quot;&gt;&lt;p style=&quot;margin:0px;margin-left:4px;&quot;&gt;+nome&lt;br&gt;+telefone&lt;/p&gt;&lt;hr size=&quot;1&quot; style=&quot;border-style:solid;&quot;&gt;&lt;p style=&quot;margin:0px;margin-left:4px;&quot;&gt;+ gerenciar planos&lt;br&gt;+gerenciar pagamentos&lt;/p&gt;" style="verticalAlign=top;align=left;overflow=fill;html=1;whiteSpace=wrap;" vertex="1" parent="1">
          <mxGeometry x="531" y="180" width="160" height="120" as="geometry" />
        </mxCell>
        <mxCell id="2cPY0iHRhw3FmmrZWizR-1" style="edgeStyle=orthogonalEdgeStyle;rounded=0;orthogonalLoop=1;jettySize=auto;html=1;exitX=0.5;exitY=1;exitDx=0;exitDy=0;" edge="1" parent="1" source="kdH_FoZ5XlBiUzMbsVr1-2" target="kdH_FoZ5XlBiUzMbsVr1-2">
          <mxGeometry relative="1" as="geometry" />
        </mxCell>
        <mxCell id="2cPY0iHRhw3FmmrZWizR-5" style="edgeStyle=orthogonalEdgeStyle;rounded=0;orthogonalLoop=1;jettySize=auto;html=1;exitX=0;exitY=0.5;exitDx=0;exitDy=0;entryX=0.5;entryY=0;entryDx=0;entryDy=0;" edge="1" parent="1" source="2cPY0iHRhw3FmmrZWizR-2" target="97LBssY3jsetB7Tuygue-5">
          <mxGeometry relative="1" as="geometry" />
        </mxCell>
        <mxCell id="2cPY0iHRhw3FmmrZWizR-6" style="edgeStyle=orthogonalEdgeStyle;rounded=0;orthogonalLoop=1;jettySize=auto;html=1;exitX=0.5;exitY=1;exitDx=0;exitDy=0;entryX=0.5;entryY=0;entryDx=0;entryDy=0;" edge="1" parent="1" source="2cPY0iHRhw3FmmrZWizR-2" target="kdH_FoZ5XlBiUzMbsVr1-1">
          <mxGeometry relative="1" as="geometry" />
        </mxCell>
        <mxCell id="2cPY0iHRhw3FmmrZWizR-2" value="USUÁRIO" style="html=1;whiteSpace=wrap;" vertex="1" parent="1">
          <mxGeometry x="296" y="100" width="235" height="50" as="geometry" />
        </mxCell>
        <mxCell id="2cPY0iHRhw3FmmrZWizR-7" style="edgeStyle=orthogonalEdgeStyle;rounded=0;orthogonalLoop=1;jettySize=auto;html=1;exitX=1;exitY=0.5;exitDx=0;exitDy=0;entryX=0.514;entryY=0.062;entryDx=0;entryDy=0;entryPerimeter=0;" edge="1" parent="1" source="2cPY0iHRhw3FmmrZWizR-2" target="kdH_FoZ5XlBiUzMbsVr1-2">
          <mxGeometry relative="1" as="geometry" />
        </mxCell>
        <mxCell id="2cPY0iHRhw3FmmrZWizR-8" value="TREINO" style="html=1;whiteSpace=wrap;" vertex="1" parent="1">
          <mxGeometry x="260" y="340" width="110" height="50" as="geometry" />
        </mxCell>
        <mxCell id="tGiBc6qZVjk7WyijXUeJ-1" value="PAGAMENTOS" style="html=1;whiteSpace=wrap;" vertex="1" parent="1">
          <mxGeometry x="470" y="340" width="110" height="50" as="geometry" />
        </mxCell>
        <mxCell id="tGiBc6qZVjk7WyijXUeJ-2" style="edgeStyle=orthogonalEdgeStyle;rounded=0;orthogonalLoop=1;jettySize=auto;html=1;exitX=0.25;exitY=1;exitDx=0;exitDy=0;entryX=0.887;entryY=-0.012;entryDx=0;entryDy=0;entryPerimeter=0;" edge="1" parent="1" source="kdH_FoZ5XlBiUzMbsVr1-2" target="tGiBc6qZVjk7WyijXUeJ-1">
          <mxGeometry relative="1" as="geometry" />
        </mxCell>
      </root>
    </mxGraphModel>
  </diagram>
</mxfile>
